<svg width="97" height="30" viewBox="0 0 97 30" fill="none" xmlns="http://www.w3.org/2000/svg">
<path d="M27.789 21.2616C27.6369 20.896 27.4944 20.5116 27.3423 20.1835L26.639 18.6178L26.6105 18.5897C24.5196 14.0897 22.2861 9.51472 19.9196 5.01472L19.8246 4.82722C19.587 4.38659 19.3494 3.89909 19.1023 3.44909C18.7982 2.91472 18.5035 2.34284 18.0188 1.79909C17.5464 1.23015 16.9517 0.77177 16.2779 0.45702C15.604 0.14227 14.8678 -0.0209961 14.1222 -0.0209961C13.3766 -0.0209961 12.6403 0.14227 11.9665 0.45702C11.2926 0.77177 10.698 1.23015 10.2255 1.79909C9.77883 2.34284 9.44619 2.91472 9.14206 3.44909C8.90446 3.93659 8.66686 4.41472 8.41975 4.85534L8.32471 5.04284C5.99622 9.54284 3.72476 14.1178 1.63387 18.6178L1.57685 18.6741C1.36776 19.1616 1.12065 19.6678 0.883051 20.2116C0.730987 20.5397 0.578922 20.896 0.426858 21.2897C0.0163142 22.3208 -0.114785 23.4396 0.0464797 24.5358C0.207745 25.632 0.655808 26.6679 1.34651 27.5414C2.03721 28.4148 2.94672 29.0956 3.98538 29.5167C5.02405 29.9378 6.15603 30.0847 7.26976 29.9428C8.33751 29.8042 9.36567 29.4534 10.292 28.9116C11.5276 28.2272 12.7156 27.2335 14.0461 25.7991C15.3767 27.2335 16.5932 28.2272 17.8002 28.921C18.961 29.593 20.2754 29.9639 21.6209 29.9991C23.1789 30.0055 24.6867 29.4556 25.8658 28.451C27.045 27.4464 27.8158 26.0549 28.0361 24.5335C28.2906 23.4401 28.2045 22.2965 27.789 21.2522V21.2616ZM14.1412 22.8178C12.5065 20.7553 11.442 18.8616 11.0809 17.2397C10.9313 16.6387 10.899 16.0151 10.9858 15.4022C11.0524 14.9241 11.2329 14.5022 11.4801 14.146C12.0503 13.3303 13.0482 12.8241 14.1412 12.8241C14.6602 12.8085 15.1751 12.9202 15.6396 13.1493C16.104 13.3783 16.5036 13.7176 16.8023 14.1366C17.0494 14.5116 17.23 14.9241 17.287 15.4022C17.3821 15.946 17.344 16.5741 17.192 17.2397C16.8308 18.8335 15.7664 20.746 14.1412 22.8178ZM26.2493 24.2053C26.1413 24.9778 25.8301 25.7088 25.3465 26.3257C24.8629 26.9425 24.2239 27.4236 23.4932 27.721C22.7708 28.021 21.9725 28.1053 21.1932 28.021C20.4329 27.9272 19.6725 27.6835 18.8932 27.2335C17.5992 26.4446 16.4357 25.4644 15.4432 24.3272C17.4391 21.8897 18.6461 19.6678 19.1023 17.6897C19.3209 16.7522 19.3494 15.9085 19.2544 15.1303C19.1357 14.3928 18.8569 13.6893 18.437 13.0678C17.9576 12.394 17.3178 11.8467 16.5737 11.474C15.8296 11.1013 15.0041 10.9146 14.1697 10.9303C12.4114 10.9303 10.8433 11.7366 9.89288 13.0585C9.46504 13.6783 9.18854 14.3875 9.08504 15.1303C8.96148 15.9178 8.99 16.7897 9.2371 17.6897C9.69329 19.6678 10.9288 21.9178 12.8962 24.346C11.9205 25.5049 10.7543 26.4937 9.44619 27.271C8.65735 27.721 7.90654 27.9553 7.14621 28.0491C5.9638 28.1985 4.76939 27.8815 3.82261 27.167C2.87583 26.4525 2.2532 25.3983 2.09006 24.2335C1.99502 23.4835 2.06155 22.7335 2.36568 21.8897C2.46072 21.5897 2.60328 21.2897 2.75535 20.9335C2.96444 20.446 3.21154 19.9397 3.44914 19.4335L3.48716 19.3678C5.54003 14.896 7.78298 10.3303 10.1115 5.85847L10.2065 5.67097C10.4441 5.22097 10.6817 4.74284 10.9288 4.29284C11.1759 3.81472 11.442 3.35534 11.7842 2.98034C12.0803 2.63161 12.4504 2.35116 12.8683 2.15873C13.2862 1.96631 13.7418 1.86658 14.203 1.86658C14.6641 1.86658 15.1197 1.96631 15.5376 2.15873C15.9555 2.35116 16.3256 2.63161 16.6217 2.98034C16.9544 3.35534 17.23 3.81472 17.4771 4.29284C17.7147 4.74284 17.9523 5.23034 18.1994 5.67097L18.2944 5.85847C20.6134 10.3303 22.8564 14.896 24.9473 19.3678L24.9758 19.396C25.2229 19.8835 25.432 20.4272 25.6696 20.896C25.8216 21.2616 25.9737 21.5522 26.0688 21.8616C26.2493 22.7053 26.3444 23.4553 26.2493 24.2053ZM39.4789 22.6116C38.7628 22.6219 38.0534 22.4731 37.4036 22.1761C36.7537 21.8791 36.1799 21.4416 35.7249 20.896C34.7023 19.7334 34.1596 18.2345 34.2042 16.696C34.1886 15.124 34.7488 13.5993 35.7819 12.4022C36.2597 11.8497 36.8546 11.4072 37.5245 11.1059C38.1945 10.8046 38.9233 10.6519 39.6595 10.6585C40.3523 10.6398 41.0385 10.7952 41.6537 11.11C42.2688 11.4249 42.7927 11.8889 43.176 12.4585L43.2711 10.9866H46.0462V22.3116H43.2616L43.1665 20.6616C42.7713 21.2697 42.2251 21.7681 41.5797 22.1094C40.9343 22.4507 40.2111 22.6235 39.4789 22.6116ZM40.2013 19.9116C40.7525 19.9116 41.2372 19.7616 41.6934 19.4897C42.1116 19.1897 42.4537 18.796 42.7198 18.3178C42.9574 17.8397 43.081 17.2678 43.081 16.6303C43.118 16.0767 43.0088 15.523 42.7639 15.0234C42.519 14.5238 42.1469 14.0955 41.6839 13.7803C41.239 13.5069 40.7254 13.362 40.2013 13.362C39.6771 13.362 39.1635 13.5069 38.7186 13.7803C38.3004 14.0803 37.9583 14.4741 37.6922 14.9522C37.4409 15.4795 37.3172 16.0572 37.331 16.6397C37.294 17.1934 37.4032 17.7471 37.6481 18.2467C37.893 18.7462 38.2651 19.1745 38.7281 19.4897C39.1748 19.7616 39.6595 19.9116 40.2013 19.9116ZM50.7983 7.93034C50.7983 8.25847 50.7412 8.55847 50.5892 8.80222C50.4371 9.03659 50.228 9.25222 49.9524 9.40222C49.6768 9.55222 49.3822 9.60847 49.078 9.60847C48.7739 9.60847 48.4698 9.55222 48.1941 9.40222C47.9335 9.25907 47.7143 9.05252 47.5574 8.80222C47.4102 8.53516 47.338 8.23415 47.3483 7.93034C47.3483 7.59284 47.4148 7.29284 47.5574 7.05847C47.7094 6.77722 47.928 6.60847 48.1941 6.45847C48.4698 6.30847 48.7644 6.24284 49.078 6.24284C49.3805 6.23597 49.6797 6.30664 49.9462 6.44796C50.2128 6.58928 50.4376 6.79641 50.5987 7.04909C50.737 7.32242 50.8055 7.62494 50.7983 7.93034ZM47.5669 22.2741V10.9678H50.5892V22.2928H47.5574L47.5669 22.2741ZM58.6676 13.9303V13.9678C58.525 13.9022 58.335 13.8741 58.1924 13.846C58.0023 13.8085 57.8503 13.8085 57.6697 13.8085C56.8238 13.8085 56.187 14.0522 55.7689 14.5585C55.3127 15.0741 55.1036 15.796 55.1036 16.7241V22.2835H52.0718V10.9585H54.8565L54.9515 12.6741C55.2556 12.0741 55.6168 11.6241 56.13 11.2866C56.6405 10.9587 57.2415 10.7949 57.8503 10.8178C58.0688 10.8178 58.2779 10.8366 58.4585 10.8741C58.5535 10.9022 58.6106 10.9022 58.6676 10.9303V13.9303ZM59.8841 22.2741V6.31784H62.9064V12.4116C63.3341 11.8678 63.8188 11.446 64.427 11.1178C65.39 10.6521 66.4839 10.52 67.5323 10.7428C68.5807 10.9657 69.5224 11.5304 70.2055 12.346C71.2303 13.5109 71.7732 15.0136 71.7262 16.5553C71.7418 18.1273 71.1816 19.6521 70.1485 20.8491C69.6706 21.4016 69.0758 21.8441 68.4058 22.1454C67.7359 22.4467 67.0071 22.5994 66.2708 22.5928C65.5781 22.6115 64.8918 22.4562 64.2767 22.1413C63.6615 21.8264 63.1377 21.3624 62.7543 20.7928L62.6593 22.2647L59.8841 22.2928V22.2741ZM65.7291 19.9116C66.2708 19.9116 66.7555 19.7616 67.2117 19.4897C67.6299 19.1897 67.9721 18.796 68.2382 18.3178C68.4853 17.8397 68.5993 17.2678 68.5993 16.6303C68.5993 16.0022 68.4853 15.4303 68.2382 14.9522C67.9886 14.4912 67.6379 14.0909 67.2117 13.7803C66.7669 13.5069 66.2532 13.362 65.7291 13.362C65.205 13.362 64.6913 13.5069 64.2465 13.7803C63.8188 14.0803 63.4862 14.4741 63.2105 14.9522C62.9592 15.4795 62.8356 16.0572 62.8494 16.6397C62.8123 17.1934 62.9216 17.7471 63.1665 18.2467C63.4114 18.7462 63.7835 19.1745 64.2465 19.4897C64.6932 19.7616 65.1779 19.9116 65.7291 19.9116ZM72.8666 22.2835V10.9585H75.6513L75.7464 12.4303C76.0963 11.8661 76.5927 11.4044 77.1842 11.0929C77.7757 10.7814 78.4408 10.6314 79.1108 10.6585C79.8769 10.6454 80.6299 10.8555 81.2757 11.2623C81.9214 11.6692 82.4312 12.2548 82.7413 12.946C83.074 13.6585 83.2545 14.5397 83.2545 15.5241V22.3116H80.2228V15.9178C80.2228 15.1303 80.0422 14.5116 79.681 14.0522C79.3199 13.6022 78.8257 13.3585 78.1984 13.3585C77.7422 13.3585 77.343 13.4522 76.9914 13.6585C76.6587 13.8741 76.3831 14.146 76.174 14.5303C75.9626 14.9189 75.8578 15.3552 75.8699 15.796V22.2835H72.8666ZM84.7657 22.2835V6.30847H87.7975V12.4022C88.2081 11.8554 88.7423 11.4106 89.3577 11.103C89.9731 10.7955 90.6526 10.6336 91.3425 10.6303C92.0586 10.62 92.768 10.7689 93.4179 11.0659C94.0678 11.3629 94.6415 11.8004 95.0966 12.346C96.1141 13.5108 96.6531 15.009 96.6077 16.546C96.6242 18.1181 96.0639 19.6431 95.03 20.8397C94.5522 21.3923 93.9573 21.8348 93.2874 22.136C92.6174 22.4373 91.8887 22.59 91.1524 22.5835C90.4596 22.6022 89.7734 22.4468 89.1582 22.1319C88.5431 21.817 88.0192 21.353 87.6359 20.7835L87.5504 22.2553L84.7657 22.2835ZM90.6392 19.9116C91.1904 19.9116 91.6751 19.7616 92.1218 19.4897C92.5495 19.1897 92.8821 18.796 93.1578 18.3178C93.3954 17.8397 93.5189 17.2678 93.5189 16.6303C93.556 16.0767 93.4467 15.523 93.2018 15.0234C92.9569 14.5238 92.5848 14.0955 92.1218 13.7803C91.677 13.5069 91.1633 13.362 90.6392 13.362C90.1151 13.362 89.6014 13.5069 89.1566 13.7803C88.7384 14.0803 88.3962 14.4741 88.1301 14.9522C87.8648 15.4748 87.7405 16.056 87.769 16.6397C87.7319 17.1934 87.8412 17.7471 88.0861 18.2467C88.3309 18.7462 88.7031 19.1745 89.1661 19.4897C89.6127 19.7616 90.0689 19.9116 90.6392 19.9116Z" fill="#FF385C"/>
</svg>
