<svg width="97" height="30" viewBox="0 0 97 30" fill="none" xmlns="http://www.w3.org/2000/svg">
<g clip-path="url(#clip0_203_274)">
<path fill-rule="evenodd" clip-rule="evenodd" d="M60.1402 23.461C54.5068 27.725 46.3415 30.0001 39.3114 30.0001C29.4539 30.0001 20.5797 26.256 13.8661 20.0289C13.3386 19.5393 13.8112 18.8719 14.4442 19.2533C21.6895 23.5823 30.6481 26.1867 39.9021 26.1867C46.1432 26.1867 53.0088 24.8607 59.3216 22.109C60.2753 21.693 61.0728 22.7503 60.1402 23.461Z" fill="#FF9900"/>
<path fill-rule="evenodd" clip-rule="evenodd" d="M62.4829 20.7093C61.7656 19.7646 57.723 20.2629 55.9085 20.4839C55.3557 20.5533 55.2713 20.0593 55.7693 19.7039C58.989 17.3769 64.2721 18.0486 64.8882 18.8286C65.5043 19.6129 64.7279 25.0513 61.7023 27.647C61.2381 28.0457 60.795 27.8333 61.0018 27.3047C61.6812 25.5627 63.2045 21.6583 62.4829 20.7093Z" fill="#FF9900"/>
<path fill-rule="evenodd" clip-rule="evenodd" d="M56.0349 3.27617V1.01414C56.0349 0.671807 56.2881 0.442139 56.5919 0.442139H66.4535C66.77 0.442139 67.0232 0.676141 67.0232 1.01414V2.95116C67.019 3.27617 66.7531 3.70084 66.2805 4.37251L61.1703 11.8649C63.0693 11.8173 65.0737 12.1076 66.7953 13.1043C67.1835 13.3296 67.289 13.6589 67.3186 13.9839V16.3976C67.3186 16.727 66.9641 17.1126 66.5928 16.9133C63.5587 15.2796 59.5288 15.102 56.1741 16.9306C55.8323 17.1213 55.4736 16.74 55.4736 16.4106V14.1183C55.4736 13.7499 55.4778 13.1216 55.8365 12.5626L61.7569 3.84384H56.6045C56.288 3.84384 56.0349 3.61417 56.0349 3.27617Z" fill="#1D1E25"/>
<path fill-rule="evenodd" clip-rule="evenodd" d="M20.0606 17.3898H17.0603C16.7734 17.3681 16.5455 17.1471 16.5244 16.8654V1.05296C16.5244 0.73662 16.7818 0.485282 17.1025 0.485282H19.9002C20.1914 0.498274 20.4235 0.727951 20.4446 1.01395V3.08098H20.4995C21.2295 1.08329 22.6009 0.151611 24.4492 0.151611C26.327 0.151611 27.5001 1.08329 28.344 3.08098C29.0698 1.08329 30.7198 0.151611 32.4879 0.151611C33.7454 0.151611 35.121 0.684617 35.9608 1.88063C36.9102 3.21097 36.7161 5.14366 36.7161 6.83801L36.7119 16.8178C36.7119 17.1341 36.4545 17.3898 36.1338 17.3898H33.1377C32.8381 17.3681 32.5976 17.1211 32.5976 16.8178V8.43703C32.5976 7.76969 32.6567 6.10567 32.5132 5.473C32.2895 4.41132 31.6186 4.11232 30.7493 4.11232C30.0235 4.11232 29.264 4.61066 28.9559 5.408C28.6479 6.20534 28.6774 7.54002 28.6774 8.43703V16.8178C28.6774 17.1341 28.42 17.3898 28.0993 17.3898H25.1032C24.7994 17.3681 24.5631 17.1211 24.5631 16.8178L24.5589 8.43703C24.5589 6.67334 24.8416 4.07765 22.7106 4.07765C20.5543 4.07765 20.6387 6.60834 20.6387 8.43703V16.8178C20.6387 17.1341 20.3813 17.3898 20.0606 17.3898" fill="#1D1E25"/>
<path fill-rule="evenodd" clip-rule="evenodd" d="M75.5134 0.151611C79.9653 0.151611 82.3748 4.07765 82.3748 9.06971C82.3748 13.8928 79.7121 17.7191 75.5134 17.7191C71.1417 17.7191 68.7617 13.7931 68.7617 8.9007C68.7617 3.97798 71.1712 0.151611 75.5134 0.151611ZM75.5387 3.37998C73.3275 3.37998 73.1883 6.47401 73.1883 8.40236C73.1883 10.3351 73.1587 14.4604 75.5134 14.4604C77.8385 14.4604 77.9482 11.1324 77.9482 9.10437C77.9482 7.76969 77.8934 6.17501 77.5009 4.90966C77.1633 3.80899 76.4924 3.37998 75.5387 3.37998Z" fill="#1D1E25"/>
<path fill-rule="evenodd" clip-rule="evenodd" d="M88.1472 17.3898H85.1596C84.86 17.3681 84.6194 17.1211 84.6194 16.8178L84.6152 1.00095C84.6406 0.710617 84.8895 0.485282 85.1933 0.485282H87.9742C88.2358 0.498274 88.451 0.680284 88.5101 0.927287V3.34531H88.565C89.4047 1.18296 90.582 0.151611 92.6539 0.151611C94 0.151611 95.3124 0.64995 96.1563 2.01496C96.9412 3.28031 96.9412 5.408 96.9412 6.93768V16.8914C96.9075 17.1688 96.6585 17.3898 96.3631 17.3898H93.3544C93.0801 17.3681 92.8523 17.1601 92.8227 16.8914V8.30269C92.8227 6.57368 93.0168 4.04298 90.9449 4.04298C90.2149 4.04298 89.5439 4.54566 89.2106 5.30833C88.7886 6.27467 88.7337 7.23668 88.7337 8.30269V16.8178C88.7295 17.1341 88.4679 17.3898 88.1472 17.3898" fill="#1D1E25"/>
<path fill-rule="evenodd" clip-rule="evenodd" d="M48.1735 9.83677C48.1735 11.0371 48.203 12.0381 47.6122 13.1041C47.1354 13.9708 46.3758 14.5038 45.5361 14.5038C44.3841 14.5038 43.7089 13.6025 43.7089 12.2721C43.7089 9.6461 46.0003 9.16943 48.1735 9.16943V9.83677ZM51.1991 17.3465C51.0007 17.5285 50.7138 17.5415 50.4901 17.4202C49.4943 16.5708 49.3128 16.1765 48.7685 15.3662C47.1227 17.0908 45.9539 17.6065 43.8229 17.6065C41.2952 17.6065 39.333 16.0075 39.333 12.8051C39.333 10.3048 40.6496 8.60176 42.5316 7.76975C44.1604 7.03307 46.4349 6.90307 48.1735 6.69941V6.30073C48.1735 5.56839 48.2283 4.70171 47.8063 4.06905C47.4434 3.50137 46.743 3.26737 46.1226 3.26737C44.9791 3.26737 43.9621 3.86971 43.7131 5.11772C43.6625 5.39506 43.4642 5.66806 43.1899 5.68106L40.2825 5.36039C40.0377 5.30406 39.7634 5.10039 39.8352 4.71472C40.5019 1.09201 43.6921 0 46.5446 0C48.0047 0 49.912 0.398672 51.064 1.53402C52.5241 2.9337 52.3848 4.80138 52.3848 6.83374V11.6351C52.3848 13.0781 52.9671 13.7108 53.5157 14.4908C53.7056 14.7682 53.7478 15.1018 53.5031 15.3098C52.8912 15.8342 51.8025 16.8092 51.2033 17.3552L51.199 17.3465" fill="#1D1E25"/>
<path fill-rule="evenodd" clip-rule="evenodd" d="M8.84046 9.83701C8.84046 11.0374 8.86999 12.0384 8.27922 13.1044C7.80238 13.9711 7.04704 14.5041 6.20309 14.5041C5.05108 14.5041 4.38014 13.6027 4.38014 12.2724C4.38014 9.64634 6.67148 9.16967 8.84046 9.16967V9.83701ZM11.866 17.3468C11.6677 17.5288 11.3808 17.5418 11.1571 17.4204C10.1612 16.5711 9.98401 16.1767 9.43544 15.3664C7.78973 17.0911 6.62507 17.6068 4.48985 17.6068C1.96642 17.6068 0 16.0077 0 12.8054C0 10.305 1.32079 8.602 3.1986 7.76999C4.82744 7.03332 7.1019 6.90332 8.84046 6.69965V6.30098C8.84046 5.56863 8.89531 4.70196 8.47755 4.06929C8.11043 3.50161 7.40995 3.26761 6.79386 3.26761C5.6503 3.26761 4.62911 3.86995 4.38014 5.11796C4.3295 5.3953 4.13117 5.6683 3.86111 5.6813L0.949452 5.36063C0.704704 5.3043 0.434637 5.10063 0.502154 4.71496C1.1731 1.09226 4.35904 0.000244141 7.21162 0.000244141C8.67166 0.000244141 10.579 0.398916 11.731 1.53426C13.1911 2.93394 13.0518 4.80163 13.0518 6.83398V11.6354C13.0518 13.0784 13.6341 13.7111 14.1827 14.4911C14.3768 14.7684 14.419 15.1021 14.1743 15.3101C13.5624 15.8344 12.4737 16.8094 11.8745 17.3554L11.866 17.3467" fill="#1D1E25"/>
</g>
<defs>
<clipPath id="clip0_203_274">
<rect width="96.9412" height="30" fill="white"/>
</clipPath>
</defs>
</svg>
