<svg width="91" height="30" viewBox="0 0 91 30" fill="none" xmlns="http://www.w3.org/2000/svg">
<g clip-path="url(#clip0_203_302)">
<path d="M38.8136 15.3847C38.8136 19.5488 35.5297 22.6173 31.4996 22.6173C27.4695 22.6173 24.1855 19.5488 24.1855 15.3847C24.1855 11.1912 27.4695 8.1521 31.4996 8.1521C35.5297 8.1521 38.8136 11.1912 38.8136 15.3847ZM35.6118 15.3847C35.6118 12.7825 33.7086 11.0021 31.4996 11.0021C29.2906 11.0021 27.3873 12.7825 27.3873 15.3847C27.3873 17.9608 29.2906 19.7673 31.4996 19.7673C33.7086 19.7673 35.6118 17.9575 35.6118 15.3847Z" fill="#EA4335"/>
<path d="M54.5929 15.3847C54.5929 19.5488 51.309 22.6173 47.2789 22.6173C43.2488 22.6173 39.9648 19.5488 39.9648 15.3847C39.9648 11.1945 43.2488 8.1521 47.2789 8.1521C51.309 8.1521 54.5929 11.1912 54.5929 15.3847ZM51.3911 15.3847C51.3911 12.7825 49.4879 11.0021 47.2789 11.0021C45.0699 11.0021 43.1666 12.7825 43.1666 15.3847C43.1666 17.9608 45.0699 19.7673 47.2789 19.7673C49.4879 19.7673 51.3911 17.9575 51.3911 15.3847Z" fill="#FBBC05"/>
<path d="M69.7135 8.58906V21.5738C69.7135 26.9151 66.5381 29.0967 62.7841 29.0967C59.2503 29.0967 57.1235 26.7521 56.3214 24.8347L59.109 23.6836C59.6054 24.8608 60.8216 26.2499 62.7808 26.2499C65.1837 26.2499 66.6728 24.7793 66.6728 22.0108V20.9706H66.5611C65.8445 21.8478 64.4638 22.6141 62.7216 22.6141C59.0761 22.6141 55.7363 19.4641 55.7363 15.4108C55.7363 11.3282 59.0761 8.1521 62.7216 8.1521C64.4606 8.1521 65.8412 8.9184 66.5611 9.76949H66.6728V8.59232H69.7135V8.58906ZM66.8997 15.4108C66.8997 12.8641 65.187 11.0021 63.0076 11.0021C60.7986 11.0021 58.9479 12.8641 58.9479 15.4108C58.9479 17.9314 60.7986 19.7673 63.0076 19.7673C65.187 19.7673 66.8997 17.9314 66.8997 15.4108Z" fill="#4285F4"/>
<path d="M74.7263 0.978271V22.1739H71.6035V0.978271H74.7263Z" fill="#34A853"/>
<path d="M86.896 17.7652L89.3812 19.4087C88.5791 20.5859 86.6462 22.6141 83.3064 22.6141C79.1645 22.6141 76.0713 19.4381 76.0713 15.3815C76.0713 11.0804 79.1908 8.14893 82.9481 8.14893C86.7317 8.14893 88.5824 11.1359 89.1872 12.75L89.5192 13.5718L79.7727 17.5761C80.5189 19.0272 81.6793 19.7674 83.3064 19.7674C84.9369 19.7674 86.0677 18.9718 86.896 17.7652ZM79.2467 15.1631L85.762 12.4794C85.4036 11.5761 84.3254 10.9468 83.0566 10.9468C81.4294 10.9468 79.1645 12.3718 79.2467 15.1631Z" fill="#EA4335"/>
<path d="M12.365 13.5033V10.4348H22.7887C22.8906 10.9696 22.9432 11.6022 22.9432 12.287C22.9432 14.5892 22.3088 17.4359 20.2641 19.4642C18.2754 21.5185 15.7344 22.6142 12.3683 22.6142C6.12918 22.6142 0.882812 17.5729 0.882812 11.3838C0.882812 5.19462 6.12918 0.15332 12.3683 0.15332C15.8198 0.15332 18.2787 1.4968 20.1261 3.24789L17.9434 5.4131C16.6186 4.18049 14.8238 3.2218 12.365 3.2218C7.80894 3.2218 4.24562 6.86419 4.24562 11.3838C4.24562 15.9033 7.80894 19.5457 12.365 19.5457C15.3202 19.5457 17.0032 18.3685 18.0814 17.299C18.9558 16.4316 19.5311 15.1925 19.7579 13.5001L12.365 13.5033Z" fill="#4285F4"/>
</g>
<defs>
<clipPath id="clip0_203_302">
<rect width="89.4118" height="30" fill="white" transform="translate(0.764648)"/>
</clipPath>
</defs>
</svg>
