<svg width="116" height="26" viewBox="0 0 116 26" fill="none" xmlns="http://www.w3.org/2000/svg">
<g clip-path="url(#clip0_203_293)">
<path d="M41.118 14.8516L40.4336 16.779H40.3766C40.2625 16.3444 40.0534 15.683 39.7112 14.8894L36.0422 5.72518H32.4492V20.3313H34.8255V11.3182C34.8255 10.7513 34.8255 10.1089 34.8065 9.31529C34.7875 8.91849 34.7495 8.61617 34.7305 8.38942H34.7875C34.9016 8.95628 35.0346 9.37198 35.1297 9.63651L39.5401 20.2935H41.2131L45.5855 9.54204C45.6805 9.2964 45.7756 8.80512 45.8706 8.38942H45.9277C45.8706 9.46646 45.8326 10.4301 45.8136 11.0159V20.2746H48.342V5.68739H44.8821L41.118 14.8516ZM50.7373 9.80657H53.2087V20.2746H50.7373V9.80657ZM51.992 5.38506C51.5738 5.38506 51.2316 5.53622 50.9464 5.80076C50.6613 6.06529 50.5092 6.40541 50.5092 6.82111C50.5092 7.21791 50.6613 7.55803 50.9464 7.82256C51.2316 8.0871 51.5738 8.21936 51.992 8.21936C52.4103 8.21936 52.7715 8.0682 53.0376 7.82256C53.3228 7.55803 53.4749 7.21791 53.4749 6.82111C53.4749 6.4243 53.3228 6.08419 53.0376 5.80076C52.7905 5.53622 52.4293 5.38506 51.992 5.38506ZM61.9725 9.7121C61.5163 9.61762 61.041 9.56093 60.5848 9.56093C59.4632 9.56093 58.4366 9.80657 57.5811 10.2979C56.7256 10.7891 56.0413 11.4694 55.604 12.3197C55.1478 13.1888 54.9196 14.1903 54.9196 15.3429C54.9196 16.3444 55.1478 17.2324 55.585 18.0449C56.0223 18.8385 56.6306 19.481 57.448 19.9156C58.2275 20.3502 59.14 20.5769 60.1665 20.5769C61.3452 20.5769 62.3528 20.3313 63.1512 19.8778L63.1702 19.8589V17.5915L63.0752 17.667C62.714 17.9316 62.2957 18.1583 61.8775 18.2906C61.4403 18.4417 61.041 18.5173 60.6988 18.5173C59.7103 18.5173 58.9309 18.2339 58.3796 17.6104C57.8092 17.0057 57.5241 16.1743 57.5241 15.1351C57.5241 14.058 57.8092 13.2077 58.3986 12.5842C58.9879 11.9606 59.7673 11.6394 60.7179 11.6394C61.5163 11.6394 62.3338 11.904 63.0752 12.433L63.1702 12.5086V10.1089L63.1512 10.09C62.828 9.95774 62.4668 9.80657 61.9725 9.7121ZM70.1281 9.63651C69.5197 9.63651 68.9494 9.82547 68.4551 10.2223C68.0369 10.5624 67.7517 11.0537 67.5046 11.6394H67.4856V9.80657H65.0142V20.2746H67.4856V14.9272C67.4856 14.0202 67.6757 13.2644 68.0939 12.7165C68.5122 12.1496 69.0445 11.8662 69.6908 11.8662C69.9189 11.8662 70.1471 11.9229 70.4322 11.9606C70.6984 12.0362 70.8885 12.1118 71.0216 12.2063L71.1166 12.2819V9.82547L71.0596 9.80657C70.8885 9.6932 70.5463 9.63651 70.1281 9.63651ZM76.8578 9.57983C75.1278 9.57983 73.7401 10.09 72.7705 11.0915C71.782 12.0929 71.3067 13.4723 71.3067 15.2106C71.3067 16.8356 71.801 18.1583 72.7515 19.122C73.702 20.0667 74.9948 20.558 76.6106 20.558C78.3026 20.558 79.6523 20.0479 80.6219 19.0275C81.6104 18.0072 82.0857 16.6467 82.0857 14.965C82.0857 13.3022 81.6294 11.9795 80.6979 11.0159C79.8044 10.0522 78.4927 9.57983 76.8578 9.57983ZM78.8349 17.6292C78.3786 18.215 77.6562 18.4984 76.7627 18.4984C75.8692 18.4984 75.1468 18.215 74.6336 17.5915C74.1203 17.0057 73.8731 16.1554 73.8731 15.0784C73.8731 13.9635 74.1393 13.1133 74.6336 12.5086C75.1468 11.904 75.8502 11.6016 76.7437 11.6016C77.6182 11.6016 78.3026 11.8851 78.7969 12.4708C79.2911 13.0566 79.5573 13.9069 79.5573 15.0217C79.5193 16.1554 79.3101 17.0435 78.8349 17.6292ZM87.5987 14.1525C86.8193 13.8313 86.325 13.5856 86.0969 13.3778C85.9068 13.1888 85.8117 12.9243 85.8117 12.5842C85.8117 12.3008 85.9258 12.0173 86.211 11.8284C86.4961 11.6394 86.8193 11.5449 87.2946 11.5449C87.7128 11.5449 88.15 11.6205 88.5683 11.7339C88.9865 11.8473 89.3667 12.0173 89.6709 12.2441L89.7659 12.3197V10.0144L89.7089 9.99553C89.4237 9.88215 89.0435 9.76878 88.5873 9.67431C88.131 9.59872 87.7128 9.56093 87.3706 9.56093C86.1919 9.56093 85.2224 9.84436 84.462 10.4679C83.7016 11.0537 83.3404 11.8473 83.3404 12.7731C83.3404 13.2644 83.4164 13.699 83.5875 14.058C83.7586 14.417 84.0057 14.7572 84.3479 15.0406C84.6901 15.3051 85.1844 15.6074 85.8688 15.8909C86.4391 16.1365 86.8763 16.3255 87.1425 16.4766C87.4086 16.6278 87.5797 16.7979 87.7128 16.9301C87.8078 17.0813 87.8649 17.2702 87.8649 17.5159C87.8649 18.215 87.3326 18.5551 86.249 18.5551C85.8307 18.5551 85.3935 18.4795 84.8802 18.3095C84.3669 18.1394 83.8917 17.8938 83.4925 17.6104L83.3974 17.5348V19.9345L83.4544 19.9534C83.8156 20.1234 84.2529 20.2368 84.7852 20.3691C85.3175 20.4635 85.7927 20.5391 86.211 20.5391C87.4847 20.5391 88.5302 20.2557 89.2717 19.6322C90.0321 19.0275 90.4313 18.2528 90.4313 17.2513C90.4313 16.5522 90.2412 15.9287 89.823 15.4563C89.2717 15.0028 88.5873 14.5304 87.5987 14.1525ZM96.9519 9.57983C95.2219 9.57983 93.8342 10.09 92.8646 11.0915C91.8951 12.0929 91.4008 13.4723 91.4008 15.2106C91.4008 16.8356 91.8951 18.1583 92.8456 19.122C93.7962 20.0667 95.0889 20.558 96.7048 20.558C98.3967 20.558 99.7465 20.0479 100.716 19.0275C101.705 18.0072 102.18 16.6467 102.18 14.965C102.18 13.3022 101.724 11.9795 100.792 11.0159C99.8985 10.0522 98.5868 9.57983 96.9519 9.57983ZM98.91 17.6292C98.4537 18.215 97.7313 18.4984 96.8378 18.4984C95.9253 18.4984 95.2219 18.215 94.7087 17.5915C94.1954 17.0057 93.9482 16.1554 93.9482 15.0784C93.9482 13.9635 94.2144 13.1133 94.7087 12.5086C95.2219 11.904 95.9253 11.6016 96.8188 11.6016C97.6743 11.6016 98.3777 11.8851 98.872 12.4708C99.3662 13.0566 99.6324 13.9069 99.6324 15.0217C99.6324 16.1554 99.3853 17.0435 98.91 17.6292ZM115.392 11.8284V9.80657H112.902V6.70774L112.826 6.72663L110.468 7.42576L110.411 7.44465V9.80657H106.685V8.4839C106.685 7.87925 106.837 7.40686 107.104 7.10454C107.37 6.80221 107.769 6.65105 108.263 6.65105C108.605 6.65105 108.967 6.72663 109.366 6.89669L109.461 6.95337V4.8182L109.404 4.79931C109.062 4.68593 108.605 4.61035 108.016 4.61035C107.275 4.61035 106.628 4.78041 106.039 5.06384C105.45 5.38506 105.012 5.81965 104.689 6.40541C104.366 6.97227 104.195 7.61471 104.195 8.35163V9.80657H102.465V11.8095H104.195V20.2746H106.685V11.8284H110.411V17.2136C110.411 19.4243 111.457 20.5391 113.548 20.5391C113.89 20.5391 114.251 20.4824 114.594 20.4258C114.955 20.3502 115.221 20.2557 115.373 20.1801L115.392 20.1612V18.1394L115.297 18.215C115.145 18.3095 115.012 18.3851 114.784 18.4417C114.594 18.4984 114.423 18.5173 114.289 18.5173C113.795 18.5173 113.453 18.404 113.206 18.1205C112.978 17.856 112.864 17.4214 112.864 16.779V11.8284H115.392Z" fill="#737373"/>
<path d="M0.587891 0.8125H12.2413V12.3953H0.587891V0.8125Z" fill="#F25022"/>
<path d="M13.458 0.8125H25.1115V12.3953H13.458V0.8125Z" fill="#7FBA00"/>
<path d="M0.587891 13.6047H12.2413V25.1876H0.587891V13.6047Z" fill="#00A4EF"/>
<path d="M13.458 13.6047H25.1115V25.1876H13.458V13.6047Z" fill="#FFB900"/>
</g>
<defs>
<clipPath id="clip0_203_293">
<rect width="114.824" height="24.375" fill="white" transform="translate(0.587891 0.8125)"/>
</clipPath>
</defs>
</svg>
