<svg width="94" height="32" viewBox="0 0 94 32" fill="none" xmlns="http://www.w3.org/2000/svg">
<g clip-path="url(#clip0_203_311)">
<path fill-rule="evenodd" clip-rule="evenodd" d="M82.1776 14.9133L76.3073 25.0705L71.2988 25.0904L82.1776 5.97236L93.0157 25.0904H87.9279L82.1776 14.9123V14.9133ZM66.3707 20.6687H71.9802L69.3757 25.0904H62.0644L62.0842 19.7065V6.0899H66.3915L66.3716 20.6687H66.3707ZM50.9862 6.09089C56.3349 6.11082 60.662 10.3542 60.6421 15.5996C60.6223 20.8261 56.2952 25.0705 50.9455 25.0705C45.6167 25.0505 41.2896 20.8072 41.2896 15.5608C41.3094 10.3343 45.6366 6.09089 50.9862 6.09089ZM50.9664 20.6498C53.8306 20.6498 56.1335 18.3897 56.1335 15.5996C56.1544 12.8105 53.8306 10.5305 50.9862 10.5305C48.1408 10.5106 45.8171 12.7906 45.8171 15.5807C45.7972 18.3697 48.121 20.6498 50.9654 20.6498H50.9664ZM33.3167 14.0905C33.2572 13.3036 33.0559 12.2627 32.7554 11.2616C32.137 9.19385 31.062 7.29289 29.6104 5.70043C28.8487 4.87566 27.9879 4.10867 26.7045 3.20521C25.7262 2.72031 24.7643 2.20272 23.8204 1.6533C23.1996 1.29968 22.4577 0.866382 21.4769 0.552613C20.3138 0.276896 19.125 0.125642 17.9303 0.101382C16.7699 0.0615386 15.6065 0.161148 14.4848 0.376304C13.3026 0.572535 12.3208 0.886304 11.0186 1.20107C8.07299 2.47806 5.78992 4.40351 3.8262 6.95849C-3.025 16.5658 3.16568 30.025 14.6048 31.6158C16.4882 31.8718 18.3716 31.7732 20.1538 31.3608L21.4164 31.0271C21.456 31.0072 21.5165 30.9873 21.5562 30.9873L22.9992 30.4374C23.0786 30.3976 23.1391 30.3777 23.2194 30.3388L23.8204 30.0639C24.9736 29.4923 26.0561 28.7869 27.0457 27.9621C26.1449 28.7842 25.1652 29.5146 24.1209 30.1426L24.1804 30.1824C24.3818 30.1227 24.5613 30.0639 24.7616 30.025C24.7616 30.025 24.7616 30.3388 24.722 30.28C24.4016 30.5161 24.9025 30.3 25.5431 29.9653C26.1848 29.6316 26.8057 29.2182 27.366 28.747C28.1882 28.0597 28.9092 27.3127 29.9308 26.0954C30.9721 24.2676 32.2753 22.6759 32.8763 20.5343C33.0767 19.9645 33.2562 19.2971 33.3772 18.6088C33.4962 17.9215 33.5775 17.2143 33.5775 16.4871C33.5577 15.76 33.4774 15.0129 33.3167 14.0905ZM18.4916 30.2412C21.9975 29.6903 24.9421 27.746 27.3462 25.0934C28.0077 24.1302 28.5284 23.2456 29.1691 22.2834C29.9704 20.3181 29.9109 18.57 30.1708 17.3328C30.4921 15.0916 29.7304 13.2847 29.0897 11.3592C28.1079 9.11902 26.8057 7.44957 24.5216 6.15265C18.7515 2.57668 10.8986 3.57775 7.15262 8.92279C7.13279 8.92279 7.03163 9.06025 6.83129 9.33517C7.09212 8.23549 7.75364 7.58703 8.41416 6.9575C10.3779 5.34681 12.6619 4.06882 15.2664 3.44128C18.2119 3.12652 21.1357 3.44128 23.7599 4.71828C27.6874 6.9575 30.2918 10.4757 30.9523 14.6394V18.4913C30.1311 24.7985 24.722 29.5927 18.4916 30.2412ZM32.8962 15.8974C32.7554 6.66365 23.6003 0.435074 14.6852 1.69314C12.0808 2.3406 9.23536 3.63752 7.21213 5.44543C6.23027 6.09289 5.77009 7.29218 4.78823 8.25441C0.860788 14.0118 1.54313 21.3799 6.43061 25.8604C7.05754 26.4829 7.72697 27.0607 8.434 27.5896C4.34788 25.1322 2.50416 21.4178 1.86347 16.9005C1.86347 15.2888 2.18382 13.6971 2.524 12.0864C4.80905 5.03205 12.0004 -0.0958442 19.8345 1.20107C21.1367 1.51584 22.4389 1.84953 23.7619 2.16429C25.4043 2.81175 27.0268 3.77498 28.3291 5.05296C29.6313 6.32896 30.6131 7.94064 31.595 9.5314C32.2555 10.8094 32.5768 12.4201 32.8972 13.6971C32.9567 14.4242 32.9567 15.1713 32.8972 15.8984L32.8962 15.8974Z" fill="#1D1E25"/>
<path fill-rule="evenodd" clip-rule="evenodd" d="M24.7622 16.0358C24.7622 20.0052 21.4368 23.2276 17.3298 23.2276C13.2239 23.2276 9.89746 20.0052 9.89746 16.0358C9.89746 12.0673 13.2229 8.84497 17.3298 8.84497C21.4368 8.84497 24.7622 12.0673 24.7622 16.0368V16.0358Z" fill="white"/>
<path fill-rule="evenodd" clip-rule="evenodd" d="M24.8036 14.8176C24.7034 14.2678 24.5428 13.8355 24.3831 13.2268C23.7414 11.8901 22.8002 10.8492 21.5575 9.96464C16.91 6.88074 10.519 9.8471 9.83867 15.1135C9.57883 17.1963 10.3197 19.2004 11.6417 20.7334C11.241 20.32 10.8007 19.8887 10.5002 19.3967L10.4605 19.4365C10.5002 19.554 10.6609 19.6327 10.7005 19.7503C10.7005 19.7503 10.5399 19.7503 10.5805 19.7303C10.4605 19.5939 10.5607 19.81 10.7402 20.1039C10.9009 20.3987 11.1012 20.6746 11.3412 20.9296C11.6824 21.3032 12.0424 21.6369 12.6434 22.0891C13.5261 22.5403 14.3066 23.13 15.3282 23.4049C15.6088 23.4846 15.9292 23.5623 16.2505 23.6211C16.5907 23.6809 16.911 23.7008 17.272 23.7008C17.6122 23.7008 17.9732 23.6609 18.4136 23.5812C18.8677 23.5275 19.3165 23.4359 19.7555 23.3073C20.7359 23.0109 21.6391 22.5007 22.4005 21.8132C22.7814 21.4606 23.3229 21.0083 23.7424 20.4186C24.0836 19.7513 24.1232 19.4166 24.2839 19.1217C24.4436 18.8269 24.6439 18.4932 24.7848 18.041C24.8995 17.5045 24.9666 16.9588 24.9851 16.4104C24.9653 15.8605 24.9256 15.3296 24.8046 14.8186L24.8036 14.8176ZM20.0351 11.1639C20.7165 11.5564 20.8167 11.6152 20.4556 11.3602C20.9773 11.4777 21.2977 11.7726 21.618 12.0674C22.3995 12.9519 23.0402 13.9928 23.3606 15.1911C23.5411 16.5468 23.4002 17.9025 22.82 19.1018C21.7787 20.9286 20.1155 22.1469 18.1319 22.4806C17.9117 22.4806 17.6717 22.4806 17.4506 22.5005C18.0119 22.4019 18.3729 22.0483 19.3944 21.6747C20.4953 21.2823 21.738 19.4554 22.34 18.3936C24.1024 15.5049 22.0187 12.8334 20.0351 11.1639ZM16.2694 22.5194C13.2246 22.2056 10.88 19.7104 10.5597 16.8218C10.8394 18.4334 11.8014 19.6706 13.1036 20.7713C13.5648 21.0661 14.2451 21.4785 14.7063 21.7733C15.4878 22.0682 15.948 22.3829 16.7097 22.5204H16.2694V22.5194ZM24.4624 17.274C24.3236 17.8836 24.1827 18.4723 24.0419 19.0819C23.7414 19.829 23.3011 20.595 22.7 21.2036C22.099 21.8132 21.3373 22.2843 20.5766 22.7366C19.9756 23.0503 19.2139 23.2077 18.5931 23.3641C18.2321 23.4039 17.8116 23.2466 17.4506 23.2276C21.8987 23.1091 24.9434 18.9644 24.2829 14.8575C23.9616 13.6592 23.3209 12.6172 22.5394 11.5763C22.219 11.1241 21.5972 10.8492 21.137 10.3969C18.3521 8.6488 14.6666 9.00242 12.5631 11.3014C12.2681 11.6035 11.9935 11.925 11.7409 12.2636C12.8636 10.6131 14.6666 9.45464 16.8297 9.11996C17.5914 9.10003 18.3729 9.23849 19.1336 9.37595C22.4997 10.3969 25.0039 13.6592 24.4624 17.275V17.274Z" fill="#D7DF23"/>
</g>
<defs>
<clipPath id="clip0_203_311">
<rect width="92.2353" height="31.875" fill="white" transform="translate(0.882812 0.0625)"/>
</clipPath>
</defs>
</svg>
