<svg width="80" height="30" viewBox="0 0 80 30" fill="none" xmlns="http://www.w3.org/2000/svg">
<g clip-path="url(#clip0_203_323)">
<path d="M65.472 28.725C72.9811 28.725 79.091 22.5405 79.091 14.94C79.091 7.33503 72.9811 1.15503 65.472 1.15503C57.9614 1.15503 51.853 7.33503 51.853 14.94C51.853 22.5405 57.9614 28.725 65.472 28.725ZM65.472 10.0245C68.148 10.0245 70.3274 12.2295 70.3274 14.9385C70.3274 17.6475 68.1466 19.8495 65.4705 19.8495C62.7929 19.8495 60.6166 17.6475 60.6166 14.937C60.6166 12.225 62.7944 10.0215 65.4705 10.0215L65.472 10.0245ZM14.0897 28.725C21.5988 28.725 27.7087 22.5405 27.7087 14.94C27.7087 7.33503 21.5988 1.15503 14.0897 1.15503C6.5821 1.15503 0.470703 7.33503 0.470703 14.94C0.470703 22.5405 6.5821 28.725 14.0897 28.725ZM14.0897 10.0245C16.7673 10.0245 18.9451 12.2295 18.9451 14.9385C18.9451 17.6475 16.7673 19.8495 14.0897 19.8495C11.4136 19.8495 9.23728 17.6475 9.23728 14.937C9.23728 12.225 11.4151 10.0215 14.0897 10.0215V10.0245ZM39.7734 9.71403L35.5922 1.33503H25.8023L34.9463 19.665V28.2945H44.6019V19.665L53.7459 1.33503H43.9516L39.7749 9.71403H39.7734Z" fill="#EE2E24"/>
</g>
<defs>
<clipPath id="clip0_203_323">
<rect width="79.0588" height="30" fill="white" transform="translate(0.470703)"/>
</clipPath>
</defs>
</svg>
