<svg width="177" height="149" viewBox="0 0 177 149" fill="none" xmlns="http://www.w3.org/2000/svg">
<line x1="28.7021" y1="12.7734" x2="171.702" y2="12.7734" stroke="#E6E9ED" stroke-dasharray="2 2"/>
<line x1="28.7021" y1="64.7734" x2="171.702" y2="64.7734" stroke="#E6E9ED" stroke-dasharray="2 2"/>
<line x1="28.7021" y1="119.773" x2="171.702" y2="119.773" stroke="#E6E9ED" stroke-dasharray="2 2"/>
<path d="M37.2505 134.486H38.3073V140.725C38.3073 141.282 38.205 141.755 38.0005 142.144C37.7959 142.533 37.5076 142.829 37.1354 143.03C36.7632 143.232 36.3243 143.333 35.8186 143.333C35.3414 143.333 34.9167 143.246 34.5445 143.073C34.1723 142.897 33.8797 142.647 33.6667 142.323C33.4536 141.999 33.3471 141.614 33.3471 141.168H34.3868C34.3868 141.415 34.4479 141.631 34.5701 141.816C34.6951 141.998 34.8655 142.14 35.0814 142.242C35.2973 142.344 35.5431 142.395 35.8186 142.395C36.1226 142.395 36.3811 142.332 36.5942 142.204C36.8073 142.076 36.9692 141.888 37.08 141.641C37.1936 141.391 37.2505 141.086 37.2505 140.725V134.486ZM42.215 143.367C41.8002 143.367 41.4238 143.289 41.0857 143.133C40.7476 142.974 40.4792 142.745 40.2803 142.447C40.0814 142.145 39.982 141.782 39.982 141.356C39.982 140.981 40.0559 140.677 40.2036 140.444C40.3513 140.208 40.5488 140.023 40.7959 139.89C41.0431 139.756 41.3158 139.657 41.6141 139.591C41.9152 139.523 42.2178 139.469 42.5218 139.43C42.9195 139.378 43.2419 139.34 43.4891 139.314C43.7391 139.286 43.9209 139.239 44.0346 139.174C44.151 139.109 44.2093 138.995 44.2093 138.833V138.799C44.2093 138.378 44.0942 138.052 43.8641 137.819C43.6368 137.586 43.2917 137.469 42.8286 137.469C42.3485 137.469 41.9721 137.574 41.6993 137.785C41.4266 137.995 41.2348 138.219 41.124 138.458L40.1695 138.117C40.34 137.719 40.5672 137.41 40.8513 137.188C41.1382 136.964 41.4507 136.807 41.7888 136.719C42.1297 136.628 42.465 136.583 42.7945 136.583C43.0047 136.583 43.2462 136.609 43.5189 136.66C43.7945 136.708 44.0601 136.809 44.3158 136.962C44.5743 137.116 44.7888 137.347 44.9593 137.657C45.1297 137.966 45.215 138.381 45.215 138.901V143.214H44.2093V142.327H44.1581C44.09 142.469 43.9763 142.621 43.8172 142.783C43.6581 142.945 43.4465 143.083 43.1823 143.197C42.9181 143.31 42.5956 143.367 42.215 143.367ZM42.3684 142.464C42.7661 142.464 43.1013 142.385 43.374 142.229C43.6496 142.073 43.857 141.871 43.9962 141.624C44.1382 141.377 44.2093 141.117 44.2093 140.844V139.924C44.1667 139.975 44.0729 140.022 43.928 140.064C43.786 140.104 43.6212 140.14 43.4337 140.171C43.249 140.199 43.0686 140.225 42.8925 140.248C42.7192 140.268 42.5786 140.285 42.4706 140.299C42.2093 140.333 41.965 140.388 41.7377 140.465C41.5132 140.539 41.3314 140.651 41.1922 140.802C41.0559 140.949 40.9877 141.151 40.9877 141.407C40.9877 141.756 41.1169 142.02 41.3755 142.199C41.6368 142.376 41.9678 142.464 42.3684 142.464ZM48.0562 139.276V143.214H47.0505V136.668H48.0221V137.691H48.1074C48.2608 137.359 48.4937 137.091 48.8062 136.89C49.1187 136.685 49.5221 136.583 50.0164 136.583C50.4596 136.583 50.8474 136.674 51.1798 136.856C51.5122 137.035 51.7707 137.307 51.9554 137.674C52.14 138.037 52.2324 138.498 52.2324 139.055V143.214H51.2267V139.123C51.2267 138.609 51.0931 138.208 50.8261 137.921C50.5591 137.631 50.1926 137.486 49.7267 137.486C49.4056 137.486 49.1187 137.556 48.8659 137.695C48.6159 137.834 48.4184 138.037 48.2735 138.305C48.1287 138.572 48.0562 138.895 48.0562 139.276Z" fill="#808D9E"/>
<path opacity="0.7" d="M0.730273 7.81445V6.77445H2.81027L2.81027 14.0645H1.66027L1.66027 7.81445H0.730273ZM4.37637 10.3245C4.37637 9.17112 4.5697 8.27112 4.95637 7.62445C5.3497 6.97112 6.02303 6.64445 6.97637 6.64445C7.9297 6.64445 8.5997 6.97112 8.98637 7.62445C9.3797 8.27112 9.57637 9.17112 9.57637 10.3245C9.57637 11.4911 9.3797 12.4045 8.98637 13.0645C8.5997 13.7178 7.9297 14.0445 6.97637 14.0445C6.02303 14.0445 5.3497 13.7178 4.95637 13.0645C4.5697 12.4045 4.37637 11.4911 4.37637 10.3245ZM8.45637 10.3245C8.45637 9.78445 8.4197 9.32779 8.34637 8.95445C8.2797 8.58112 8.1397 8.27779 7.92637 8.04445C7.71303 7.80445 7.39637 7.68445 6.97637 7.68445C6.55637 7.68445 6.2397 7.80445 6.02637 8.04445C5.81303 8.27779 5.6697 8.58112 5.59637 8.95445C5.5297 9.32779 5.49637 9.78445 5.49637 10.3245C5.49637 10.8845 5.5297 11.3545 5.59637 11.7345C5.66303 12.1145 5.80303 12.4211 6.01637 12.6545C6.23637 12.8878 6.55637 13.0045 6.97637 13.0045C7.39637 13.0045 7.71303 12.8878 7.92637 12.6545C8.14637 12.4211 8.2897 12.1145 8.35637 11.7345C8.42303 11.3545 8.45637 10.8845 8.45637 10.3245ZM13.1126 11.3145L15.6526 14.0645H14.1126L12.0726 11.6945V14.0645H10.9326V6.66445H12.0726V10.9645L14.0726 8.55445H15.6526L13.1126 11.3145Z" fill="#1D1E25"/>
<path opacity="0.7" d="M7.33809 61.7545H3.98809L3.98809 63.7445C4.12809 63.5578 4.33475 63.4011 4.60809 63.2745C4.88809 63.1478 5.18475 63.0845 5.49809 63.0845C6.05809 63.0845 6.51142 63.2045 6.85809 63.4445C7.21142 63.6845 7.46142 63.9878 7.60809 64.3545C7.76142 64.7211 7.83809 65.1078 7.83809 65.5145C7.83809 66.0078 7.74142 66.4478 7.54809 66.8345C7.36142 67.2145 7.07809 67.5145 6.69809 67.7345C6.32475 67.9545 5.86475 68.0645 5.31809 68.0645C4.59142 68.0645 4.00809 67.8845 3.56809 67.5245C3.12809 67.1645 2.86475 66.6878 2.77809 66.0945H3.88809C3.96142 66.4078 4.12475 66.6578 4.37809 66.8445C4.63142 67.0245 4.94809 67.1145 5.32809 67.1145C5.80142 67.1145 6.15475 66.9711 6.38809 66.6845C6.62809 66.3978 6.74809 66.0178 6.74809 65.5445C6.74809 65.0645 6.62809 64.6978 6.38809 64.4445C6.14809 64.1845 5.79475 64.0545 5.32809 64.0545C5.00142 64.0545 4.72475 64.1378 4.49809 64.3045C4.27809 64.4645 4.11809 64.6845 4.01809 64.9645H2.93809L2.93809 60.7545H7.33809V61.7545ZM11.3548 65.3145L13.8948 68.0645H12.3548L10.3148 65.6945V68.0645H9.1748V60.6645H10.3148V64.9645L12.3148 62.5545H13.8948L11.3548 65.3145Z" fill="#1D1E25"/>
<path opacity="0.7" d="M5.39688 118.324C5.39688 117.171 5.59021 116.271 5.97688 115.624C6.37021 114.971 7.04354 114.644 7.99688 114.644C8.95021 114.644 9.62021 114.971 10.0069 115.624C10.4002 116.271 10.5969 117.171 10.5969 118.324C10.5969 119.491 10.4002 120.404 10.0069 121.064C9.62021 121.718 8.95021 122.044 7.99688 122.044C7.04354 122.044 6.37021 121.718 5.97688 121.064C5.59021 120.404 5.39688 119.491 5.39688 118.324ZM9.47688 118.324C9.47688 117.784 9.44021 117.328 9.36688 116.954C9.30021 116.581 9.16021 116.278 8.94688 116.044C8.73354 115.804 8.41688 115.684 7.99688 115.684C7.57688 115.684 7.26021 115.804 7.04688 116.044C6.83354 116.278 6.69021 116.581 6.61688 116.954C6.55021 117.328 6.51688 117.784 6.51688 118.324C6.51688 118.884 6.55021 119.354 6.61688 119.734C6.68354 120.114 6.82354 120.421 7.03688 120.654C7.25688 120.888 7.57688 121.004 7.99688 121.004C8.41688 121.004 8.73354 120.888 8.94688 120.654C9.16688 120.421 9.31021 120.114 9.37688 119.734C9.44354 119.354 9.47688 118.884 9.47688 118.324Z" fill="#1D1E25"/>
<path d="M146.619 134.486H147.88L150.846 141.731H150.948L153.914 134.486H155.175V143.214H154.187V136.583H154.102L151.374 143.214H150.42L147.692 136.583H147.607V143.214H146.619V134.486ZM159.084 143.367C158.669 143.367 158.293 143.289 157.955 143.133C157.617 142.974 157.348 142.745 157.149 142.447C156.951 142.145 156.851 141.782 156.851 141.356C156.851 140.981 156.925 140.677 157.073 140.444C157.22 140.208 157.418 140.023 157.665 139.89C157.912 139.756 158.185 139.657 158.483 139.591C158.784 139.523 159.087 139.469 159.391 139.43C159.789 139.378 160.111 139.34 160.358 139.314C160.608 139.286 160.79 139.239 160.904 139.174C161.02 139.109 161.078 138.995 161.078 138.833V138.799C161.078 138.378 160.963 138.052 160.733 137.819C160.506 137.586 160.161 137.469 159.698 137.469C159.218 137.469 158.841 137.574 158.568 137.785C158.296 137.995 158.104 138.219 157.993 138.458L157.039 138.117C157.209 137.719 157.436 137.41 157.72 137.188C158.007 136.964 158.32 136.807 158.658 136.719C158.999 136.628 159.334 136.583 159.664 136.583C159.874 136.583 160.115 136.609 160.388 136.66C160.664 136.708 160.929 136.809 161.185 136.962C161.443 137.116 161.658 137.347 161.828 137.657C161.999 137.966 162.084 138.381 162.084 138.901V143.214H161.078V142.327H161.027C160.959 142.469 160.845 142.621 160.686 142.783C160.527 142.945 160.316 143.083 160.051 143.197C159.787 143.31 159.465 143.367 159.084 143.367ZM159.238 142.464C159.635 142.464 159.97 142.385 160.243 142.229C160.519 142.073 160.726 141.871 160.865 141.624C161.007 141.377 161.078 141.117 161.078 140.844V139.924C161.036 139.975 160.942 140.022 160.797 140.064C160.655 140.104 160.49 140.14 160.303 140.171C160.118 140.199 159.938 140.225 159.762 140.248C159.588 140.268 159.448 140.285 159.34 140.299C159.078 140.333 158.834 140.388 158.607 140.465C158.382 140.539 158.201 140.651 158.061 140.802C157.925 140.949 157.857 141.151 157.857 141.407C157.857 141.756 157.986 142.02 158.245 142.199C158.506 142.376 158.837 142.464 159.238 142.464ZM163.92 143.214V136.668H164.891V137.657H164.959C165.079 137.333 165.295 137.07 165.607 136.868C165.92 136.667 166.272 136.566 166.664 136.566C166.738 136.566 166.83 136.567 166.941 136.57C167.052 136.573 167.136 136.577 167.192 136.583V137.606C167.158 137.597 167.08 137.584 166.958 137.567C166.839 137.547 166.712 137.537 166.579 137.537C166.261 137.537 165.977 137.604 165.727 137.738C165.479 137.868 165.283 138.05 165.138 138.283C164.996 138.513 164.925 138.776 164.925 139.072V143.214H163.92Z" fill="#808D9E"/>
<path d="M90.6186 143.214V134.486H95.8516V135.424H91.6754V138.373H95.4595V139.31H91.6754V143.214H90.6186ZM99.7891 143.35C99.1584 143.35 98.6144 143.211 98.157 142.932C97.7024 142.651 97.3516 142.259 97.1044 141.756C96.8601 141.251 96.7379 140.662 96.7379 139.992C96.7379 139.322 96.8601 138.731 97.1044 138.219C97.3516 137.705 97.6953 137.305 98.1357 137.018C98.5789 136.728 99.0959 136.583 99.6868 136.583C100.028 136.583 100.364 136.64 100.697 136.753C101.029 136.867 101.332 137.052 101.604 137.307C101.877 137.56 102.094 137.895 102.256 138.313C102.418 138.731 102.499 139.245 102.499 139.856V140.282H97.4539V139.412H101.477C101.477 139.043 101.403 138.714 101.255 138.424C101.11 138.134 100.903 137.905 100.633 137.738C100.366 137.57 100.05 137.486 99.6868 137.486C99.2862 137.486 98.9397 137.586 98.647 137.785C98.3573 137.981 98.1343 138.236 97.978 138.552C97.8218 138.867 97.7436 139.205 97.7436 139.566V140.145C97.7436 140.64 97.8289 141.059 97.9993 141.403C98.1726 141.743 98.4127 142.003 98.7195 142.182C99.0263 142.359 99.3828 142.447 99.7891 142.447C100.053 142.447 100.292 142.41 100.505 142.336C100.721 142.259 100.907 142.145 101.063 141.995C101.219 141.841 101.34 141.651 101.425 141.424L102.397 141.697C102.295 142.026 102.123 142.316 101.881 142.566C101.64 142.813 101.342 143.006 100.987 143.145C100.631 143.282 100.232 143.35 99.7891 143.35ZM104.166 143.214V134.486H105.171V137.708H105.256C105.33 137.594 105.433 137.449 105.563 137.273C105.697 137.094 105.887 136.935 106.134 136.796C106.384 136.654 106.722 136.583 107.148 136.583C107.7 136.583 108.185 136.721 108.606 136.996C109.026 137.272 109.354 137.662 109.59 138.168C109.826 138.674 109.944 139.27 109.944 139.958C109.944 140.651 109.826 141.252 109.59 141.76C109.354 142.266 109.028 142.658 108.61 142.937C108.192 143.212 107.711 143.35 107.166 143.35C106.745 143.35 106.408 143.28 106.156 143.141C105.903 142.999 105.708 142.839 105.572 142.66C105.435 142.478 105.33 142.327 105.256 142.208H105.137V143.214H104.166ZM105.154 139.941C105.154 140.435 105.227 140.871 105.371 141.249C105.516 141.624 105.728 141.918 106.006 142.131C106.285 142.341 106.626 142.447 107.029 142.447C107.45 142.447 107.8 142.336 108.082 142.114C108.366 141.89 108.579 141.589 108.721 141.211C108.866 140.83 108.938 140.407 108.938 139.941C108.938 139.481 108.867 139.066 108.725 138.697C108.586 138.324 108.374 138.03 108.09 137.814C107.809 137.596 107.455 137.486 107.029 137.486C106.62 137.486 106.276 137.59 105.998 137.797C105.719 138.002 105.509 138.289 105.367 138.658C105.225 139.025 105.154 139.452 105.154 139.941Z" fill="#808D9E"/>
<rect x="36.75" y="17.5645" width="15" height="52.5351" rx="7.5" fill="#EB6E46" stroke="white" stroke-width="3"/>
<rect x="36.75" y="32.3608" width="15" height="52.5351" rx="7.5" fill="#20BFF7" stroke="white" stroke-width="3"/>
<rect x="36.75" y="69.6729" width="15" height="52.5351" rx="7.5" fill="#2280FF" stroke="white" stroke-width="3"/>
<rect x="92.75" y="51.6599" width="15" height="35.2918" rx="7.5" fill="#EB6E46" stroke="white" stroke-width="3"/>
<rect x="92.75" y="76.106" width="15" height="35.2918" rx="7.5" fill="#20BFF7" stroke="white" stroke-width="3"/>
<rect x="92.75" y="101.838" width="15" height="20.3694" rx="7.5" fill="#2280FF" stroke="white" stroke-width="3"/>
<rect x="148.75" y="56.1633" width="15" height="33.7243" rx="7.5" fill="#EB6E46" stroke="white" stroke-width="3"/>
<rect x="148.75" y="65.3413" width="15" height="33.7243" rx="7.5" fill="#20BFF7" stroke="white" stroke-width="3"/>
<rect x="148.75" y="88.4846" width="15" height="33.7243" rx="7.5" fill="#2280FF" stroke="white" stroke-width="3"/>
</svg>
