<svg width="40" height="40" viewBox="0 0 40 40" fill="none" xmlns="http://www.w3.org/2000/svg">
<path d="M15.0002 8.33333H11.6668C9.82588 8.33333 8.3335 9.82572 8.3335 11.6667V31.6667C8.3335 33.5076 9.82588 35 11.6668 35H28.3335C30.1744 35 31.6668 33.5076 31.6668 31.6667V11.6667C31.6668 9.82572 30.1744 8.33333 28.3335 8.33333H25.0002M15.0002 8.33333C15.0002 10.1743 16.4925 11.6667 18.3335 11.6667H21.6668C23.5078 11.6667 25.0002 10.1743 25.0002 8.33333M15.0002 8.33333C15.0002 6.49238 16.4925 5 18.3335 5H21.6668C23.5078 5 25.0002 6.49238 25.0002 8.33333M20.0002 20H25.0002M20.0002 26.6667H25.0002M15.0002 20H15.0168M15.0002 26.6667H15.0168" stroke="white" stroke-width="3" stroke-linecap="round"/>
</svg>
