<svg width="20" height="20" viewBox="0 0 20 20" fill="none" xmlns="http://www.w3.org/2000/svg">
<path fill-rule="evenodd" clip-rule="evenodd" d="M10 19.5999C15.302 19.5999 19.6 15.3018 19.6 9.9999C19.6 4.69797 15.302 0.399902 10 0.399902C4.69809 0.399902 0.400024 4.69797 0.400024 9.9999C0.400024 15.3018 4.69809 19.5999 10 19.5999ZM14.4486 8.44843C14.9172 7.9798 14.9172 7.22 14.4486 6.75137C13.9799 6.28275 13.2201 6.28275 12.7515 6.75137L8.80002 10.7028L7.24855 9.15137C6.77992 8.68274 6.02013 8.68274 5.5515 9.15137C5.08287 9.62 5.08287 10.3798 5.5515 10.8484L7.9515 13.2484C8.42013 13.7171 9.17992 13.7171 9.64855 13.2484L14.4486 8.44843Z" fill="#46B277"/>
</svg>
