<svg width="367" height="261" viewBox="0 0 367 261" fill="none" xmlns="http://www.w3.org/2000/svg">
<g clip-path="url(#clip0_1_2553)">
<mask id="mask0_1_2553" style="mask-type:luminance" maskUnits="userSpaceOnUse" x="-1" y="8" width="369" height="261">
<rect x="-0.0349121" y="8.87817" width="367.22" height="260" transform="rotate(0.0158183 -0.0349121 8.87817)" fill="white"/>
</mask>
<g mask="url(#mask0_1_2553)">
<g clip-path="url(#clip1_1_2553)">
<path d="M336.767 250.607C336.767 251.528 336.601 252.323 336.268 252.994C335.935 253.664 335.479 254.181 334.9 254.544C334.32 254.908 333.658 255.089 332.914 255.089C332.169 255.089 331.508 254.907 330.928 254.543C330.349 254.179 329.893 253.662 329.561 252.992C329.228 252.321 329.063 251.526 329.063 250.605C329.063 249.685 329.229 248.889 329.562 248.219C329.895 247.549 330.351 247.032 330.93 246.668C331.51 246.305 332.172 246.123 332.916 246.123C333.661 246.124 334.322 246.306 334.902 246.669C335.481 247.033 335.937 247.55 336.269 248.221C336.602 248.891 336.768 249.687 336.767 250.607ZM335.745 250.607C335.745 249.851 335.619 249.214 335.366 248.694C335.116 248.174 334.777 247.78 334.348 247.513C333.922 247.246 333.444 247.112 332.916 247.112C332.388 247.112 331.909 247.245 331.48 247.512C331.054 247.779 330.714 248.172 330.461 248.692C330.211 249.212 330.086 249.85 330.085 250.606C330.085 251.361 330.21 251.999 330.46 252.519C330.713 253.039 331.052 253.433 331.478 253.7C331.907 253.967 332.386 254.1 332.914 254.101C333.442 254.101 333.92 253.967 334.346 253.7C334.775 253.434 335.115 253.04 335.365 252.52C335.618 252.001 335.744 251.363 335.745 250.607ZM341.066 255.109C340.452 255.108 339.924 254.963 339.481 254.673C339.038 254.384 338.697 253.984 338.458 253.476C338.22 252.967 338.101 252.386 338.101 251.733C338.101 251.068 338.223 250.481 338.468 249.973C338.715 249.462 339.059 249.063 339.499 248.776C339.943 248.486 340.46 248.341 341.051 248.342C341.511 248.342 341.926 248.427 342.295 248.598C342.664 248.768 342.967 249.007 343.202 249.314C343.438 249.621 343.584 249.979 343.641 250.388L342.635 250.387C342.559 250.089 342.388 249.825 342.124 249.595C341.863 249.362 341.511 249.245 341.067 249.245C340.675 249.245 340.332 249.347 340.036 249.551C339.743 249.753 339.515 250.039 339.35 250.408C339.188 250.774 339.107 251.205 339.106 251.699C339.106 252.205 339.186 252.645 339.345 253.02C339.507 253.395 339.734 253.686 340.026 253.894C340.322 254.101 340.668 254.205 341.066 254.205C341.327 254.205 341.565 254.16 341.778 254.069C341.991 253.978 342.171 253.848 342.319 253.677C342.467 253.507 342.572 253.302 342.635 253.064L343.64 253.064C343.583 253.45 343.443 253.798 343.218 254.108C342.996 254.414 342.702 254.659 342.336 254.84C341.972 255.019 341.549 255.109 341.066 255.109ZM347.958 248.429L347.958 249.281L344.566 249.28L344.566 248.428L347.958 248.429ZM345.555 246.86L346.561 246.86L346.559 253.099C346.559 253.383 346.6 253.596 346.683 253.738C346.768 253.877 346.876 253.971 347.006 254.019C347.14 254.065 347.281 254.088 347.428 254.088C347.539 254.088 347.63 254.082 347.701 254.071C347.772 254.056 347.829 254.045 347.871 254.037L348.076 254.94C348.008 254.966 347.912 254.991 347.79 255.017C347.668 255.045 347.513 255.059 347.326 255.059C347.042 255.059 346.763 254.998 346.491 254.876C346.221 254.753 345.996 254.567 345.817 254.317C345.641 254.067 345.553 253.752 345.553 253.371L345.555 246.86Z" fill="#808D9E"/>
<path fill-rule="evenodd" clip-rule="evenodd" d="M337.842 237.971L337.892 54.9714L339.112 54.9718L339.062 237.972L337.842 237.971Z" fill="#E9ECF2"/>
</g>
<g clip-path="url(#clip2_1_2553)">
<path d="M280.844 248.41C280.793 247.978 280.586 247.643 280.222 247.404C279.859 247.166 279.413 247.046 278.884 247.046C278.498 247.046 278.16 247.108 277.87 247.233C277.583 247.358 277.358 247.53 277.196 247.749C277.037 247.967 276.958 248.216 276.958 248.494C276.958 248.727 277.013 248.928 277.124 249.095C277.237 249.26 277.382 249.398 277.558 249.509C277.734 249.617 277.919 249.706 278.112 249.777C278.305 249.846 278.483 249.901 278.645 249.944L279.531 250.183C279.758 250.242 280.011 250.325 280.289 250.43C280.571 250.535 280.839 250.679 281.095 250.861C281.353 251.04 281.566 251.27 281.734 251.551C281.901 251.832 281.985 252.178 281.985 252.587C281.985 253.058 281.861 253.484 281.614 253.865C281.369 254.246 281.011 254.548 280.54 254.772C280.071 254.997 279.501 255.109 278.831 255.109C278.206 255.108 277.665 255.007 277.207 254.806C276.753 254.604 276.395 254.322 276.134 253.962C275.875 253.601 275.729 253.182 275.695 252.704L276.786 252.705C276.814 253.034 276.925 253.307 277.118 253.523C277.314 253.736 277.561 253.895 277.86 254C278.161 254.103 278.484 254.154 278.831 254.154C279.234 254.154 279.597 254.089 279.918 253.958C280.239 253.825 280.493 253.64 280.681 253.405C280.868 253.166 280.962 252.888 280.962 252.569C280.962 252.28 280.881 252.044 280.719 251.862C280.558 251.68 280.345 251.532 280.08 251.419C279.816 251.305 279.531 251.205 279.224 251.12L278.15 250.813C277.468 250.617 276.929 250.337 276.531 249.973C276.133 249.609 275.935 249.133 275.935 248.545C275.935 248.057 276.067 247.631 276.332 247.267C276.599 246.901 276.957 246.617 277.406 246.415C277.857 246.211 278.362 246.108 278.919 246.109C279.481 246.109 279.981 246.21 280.418 246.412C280.856 246.611 281.202 246.883 281.458 247.23C281.716 247.577 281.853 247.97 281.867 248.411L280.844 248.41ZM286.33 255.094C285.699 255.093 285.155 254.954 284.698 254.676C284.243 254.394 283.893 254.002 283.646 253.499C283.401 252.993 283.279 252.405 283.28 251.735C283.28 251.064 283.402 250.473 283.646 249.962C283.894 249.448 284.238 249.048 284.678 248.761C285.121 248.471 285.638 248.326 286.229 248.327C286.57 248.327 286.907 248.384 287.239 248.497C287.572 248.611 287.874 248.796 288.147 249.052C288.419 249.304 288.637 249.64 288.798 250.057C288.96 250.475 289.041 250.989 289.041 251.6L289.041 252.026L283.995 252.025L283.996 251.155L288.018 251.157C288.018 250.787 287.945 250.458 287.797 250.168C287.652 249.878 287.445 249.649 287.175 249.482C286.908 249.314 286.593 249.23 286.229 249.23C285.829 249.23 285.482 249.329 285.189 249.528C284.899 249.724 284.676 249.98 284.52 250.295C284.364 250.61 284.285 250.948 284.285 251.309L284.285 251.889C284.285 252.383 284.37 252.802 284.541 253.146C284.714 253.487 284.954 253.747 285.26 253.926C285.567 254.102 285.924 254.19 286.33 254.19C286.594 254.19 286.833 254.153 287.046 254.08C287.262 254.003 287.448 253.889 287.604 253.739C287.761 253.585 287.881 253.395 287.967 253.168L288.938 253.441C288.836 253.77 288.664 254.06 288.422 254.31C288.181 254.557 287.882 254.75 287.527 254.889C287.172 255.026 286.773 255.094 286.33 255.094ZM290.569 257.413L290.572 248.413L291.543 248.413L291.543 249.453L291.662 249.453C291.736 249.339 291.838 249.195 291.969 249.018C292.103 248.84 292.293 248.68 292.54 248.541C292.79 248.399 293.128 248.328 293.555 248.329C294.106 248.329 294.592 248.467 295.012 248.742C295.432 249.018 295.76 249.409 295.996 249.914C296.232 250.42 296.349 251.017 296.349 251.704C296.349 252.398 296.231 252.998 295.995 253.507C295.759 254.012 295.432 254.404 295.015 254.683C294.597 254.958 294.115 255.096 293.57 255.096C293.149 255.096 292.813 255.026 292.56 254.887C292.307 254.744 292.113 254.584 291.976 254.405C291.84 254.223 291.735 254.072 291.661 253.953L291.576 253.953L291.575 257.413L290.569 257.413ZM291.559 251.686C291.559 252.18 291.632 252.616 291.776 252.994C291.921 253.369 292.133 253.663 292.411 253.877C292.689 254.087 293.03 254.192 293.434 254.192C293.854 254.192 294.205 254.082 294.486 253.86C294.77 253.636 294.984 253.335 295.126 252.957C295.271 252.576 295.343 252.153 295.343 251.687C295.344 251.227 295.273 250.812 295.131 250.443C294.992 250.07 294.78 249.776 294.496 249.56C294.215 249.342 293.861 249.232 293.435 249.232C293.026 249.232 292.682 249.335 292.404 249.543C292.125 249.747 291.915 250.034 291.773 250.403C291.631 250.77 291.56 251.197 291.559 251.686Z" fill="#808D9E"/>
<path fill-rule="evenodd" clip-rule="evenodd" d="M285.382 237.957L285.432 54.957L286.652 54.9574L286.602 237.957L285.382 237.957Z" fill="#E9ECF2"/>
</g>
<g clip-path="url(#clip3_1_2553)">
<path d="M221.915 254.939L220.807 254.939L224.014 246.213L225.105 246.213L228.307 254.941L227.199 254.941L224.593 247.594L224.525 247.594L221.915 254.939ZM222.325 251.531L226.791 251.532L226.79 252.469L222.324 252.468L222.325 251.531ZM233.655 252.267L233.656 248.397L234.662 248.398L234.66 254.943L233.655 254.943L233.655 253.835L233.587 253.835C233.433 254.167 233.195 254.45 232.871 254.683C232.547 254.913 232.138 255.028 231.643 255.027C231.234 255.027 230.871 254.938 230.552 254.759C230.234 254.577 229.984 254.304 229.803 253.94C229.621 253.574 229.53 253.112 229.53 252.555L229.531 248.396L230.537 248.396L230.536 252.487C230.536 252.965 230.669 253.345 230.936 253.629C231.206 253.914 231.55 254.056 231.967 254.056C232.217 254.056 232.472 253.992 232.73 253.864C232.992 253.737 233.21 253.541 233.387 253.276C233.566 253.012 233.655 252.676 233.655 252.267ZM239.144 257.535C238.658 257.535 238.24 257.472 237.891 257.347C237.541 257.225 237.25 257.063 237.017 256.861C236.787 256.662 236.604 256.449 236.468 256.222L237.269 255.66C237.36 255.779 237.475 255.915 237.614 256.069C237.753 256.225 237.944 256.36 238.185 256.474C238.429 256.59 238.749 256.649 239.144 256.649C239.672 256.649 240.108 256.521 240.452 256.266C240.796 256.01 240.968 255.61 240.968 255.064L240.969 253.735L240.883 253.735C240.809 253.854 240.704 254.002 240.568 254.178C240.434 254.351 240.241 254.506 239.988 254.642C239.738 254.775 239.4 254.842 238.974 254.842C238.446 254.842 237.971 254.717 237.551 254.467C237.133 254.216 236.802 253.853 236.558 253.375C236.317 252.898 236.196 252.318 236.196 251.637C236.197 250.966 236.315 250.382 236.551 249.885C236.787 249.385 237.115 248.999 237.535 248.726C237.956 248.451 238.442 248.313 238.993 248.314C239.419 248.314 239.757 248.385 240.007 248.527C240.26 248.666 240.453 248.825 240.586 249.004C240.723 249.18 240.828 249.325 240.902 249.439L241.004 249.439L241.004 248.399L241.976 248.4L241.974 255.133C241.974 255.695 241.846 256.152 241.59 256.505C241.337 256.86 240.996 257.119 240.567 257.284C240.141 257.452 239.666 257.535 239.144 257.535ZM239.111 253.939C239.514 253.939 239.855 253.846 240.133 253.662C240.412 253.477 240.624 253.212 240.769 252.865C240.914 252.519 240.986 252.104 240.986 251.621C240.986 251.149 240.915 250.733 240.773 250.372C240.632 250.011 240.421 249.729 240.143 249.524C239.865 249.319 239.521 249.217 239.112 249.217C238.686 249.217 238.331 249.325 238.046 249.541C237.765 249.756 237.553 250.046 237.411 250.41C237.272 250.773 237.202 251.177 237.202 251.62C237.202 252.074 237.273 252.476 237.415 252.826C237.56 253.173 237.773 253.445 238.054 253.644C238.338 253.84 238.69 253.938 239.111 253.939Z" fill="#808D9E"/>
<path fill-rule="evenodd" clip-rule="evenodd" d="M230.482 237.942L230.532 54.9419L231.752 54.9422L231.702 237.942L230.482 237.942Z" fill="#E9ECF2"/>
</g>
<g clip-path="url(#clip4_1_2553)">
<path d="M175.469 246.2L176.526 246.2L176.524 252.438C176.524 252.995 176.422 253.468 176.217 253.857C176.012 254.247 175.724 254.542 175.352 254.744C174.98 254.945 174.541 255.046 174.035 255.046C173.558 255.046 173.133 254.959 172.761 254.785C172.389 254.609 172.096 254.359 171.883 254.035C171.67 253.711 171.564 253.326 171.564 252.88L172.604 252.881C172.604 253.128 172.665 253.344 172.787 253.528C172.912 253.71 173.082 253.852 173.298 253.955C173.514 254.057 173.76 254.108 174.035 254.108C174.339 254.108 174.598 254.044 174.811 253.917C175.024 253.789 175.186 253.601 175.297 253.354C175.41 253.104 175.467 252.799 175.467 252.438L175.469 246.2ZM182.631 252.253L182.632 248.383L183.638 248.384L183.636 254.929L182.63 254.929L182.63 253.821L182.562 253.821C182.409 254.153 182.17 254.436 181.846 254.669C181.522 254.899 181.113 255.014 180.619 255.013C180.21 255.013 179.846 254.924 179.528 254.745C179.21 254.563 178.96 254.29 178.778 253.926C178.596 253.56 178.506 253.098 178.506 252.541L178.507 248.382L179.513 248.382L179.511 252.473C179.511 252.951 179.645 253.331 179.912 253.616C180.182 253.9 180.525 254.042 180.943 254.042C181.193 254.042 181.447 253.978 181.706 253.85C181.967 253.723 182.186 253.527 182.362 253.263C182.541 252.998 182.631 252.662 182.631 252.253ZM186.486 246.203L186.483 254.93L185.478 254.93L185.48 246.202L186.486 246.203Z" fill="#808D9E"/>
<path fill-rule="evenodd" clip-rule="evenodd" d="M178.022 237.927L178.072 54.9275L180.512 54.9282L180.462 237.928L178.022 237.927Z" fill="#E9ECF2"/>
<path opacity="0.1" fill-rule="evenodd" clip-rule="evenodd" d="M156.062 237.921L156.112 54.9214L204.912 54.9349L204.862 237.935L156.062 237.921Z" fill="url(#paint0_linear_1_2553)"/>
</g>
<g clip-path="url(#clip5_1_2553)">
<path d="M122.753 246.185L123.81 246.185L123.808 252.424C123.808 252.981 123.706 253.454 123.501 253.843C123.297 254.232 123.008 254.527 122.636 254.729C122.264 254.93 121.825 255.031 121.319 255.031C120.842 255.031 120.417 254.944 120.045 254.771C119.673 254.594 119.38 254.344 119.167 254.02C118.954 253.697 118.848 253.312 118.848 252.866L119.888 252.866C119.888 253.113 119.949 253.329 120.071 253.514C120.196 253.695 120.366 253.838 120.582 253.94C120.798 254.042 121.044 254.093 121.319 254.094C121.623 254.094 121.882 254.03 122.095 253.902C122.308 253.774 122.47 253.587 122.581 253.34C122.695 253.09 122.752 252.784 122.752 252.423L122.753 246.185ZM129.915 252.238L129.916 248.369L130.922 248.369L130.92 254.914L129.914 254.914L129.915 253.806L129.846 253.806C129.693 254.138 129.454 254.421 129.13 254.654C128.806 254.884 128.397 254.999 127.903 254.999C127.494 254.999 127.13 254.909 126.812 254.73C126.494 254.548 126.244 254.275 126.062 253.912C125.881 253.545 125.79 253.083 125.79 252.527L125.791 248.367L126.797 248.368L126.796 252.459C126.796 252.936 126.929 253.317 127.196 253.601C127.466 253.885 127.809 254.027 128.227 254.027C128.477 254.027 128.731 253.963 128.99 253.836C129.251 253.708 129.47 253.512 129.646 253.248C129.825 252.984 129.915 252.647 129.915 252.238ZM133.769 250.978L133.768 254.915L132.762 254.915L132.764 248.369L133.735 248.37L133.735 249.392L133.82 249.392C133.974 249.06 134.207 248.793 134.519 248.591C134.832 248.387 135.235 248.285 135.73 248.285C136.173 248.285 136.561 248.376 136.893 248.558C137.225 248.737 137.484 249.01 137.668 249.376C137.853 249.74 137.945 250.2 137.945 250.757L137.944 254.916L136.938 254.916L136.939 250.825C136.939 250.311 136.806 249.91 136.539 249.623C136.272 249.333 135.906 249.188 135.44 249.188C135.119 249.188 134.832 249.258 134.579 249.397C134.329 249.536 134.131 249.739 133.986 250.006C133.841 250.273 133.769 250.597 133.769 250.978Z" fill="#808D9E"/>
<path fill-rule="evenodd" clip-rule="evenodd" d="M130.442 237.914L130.492 54.9143L131.712 54.9146L131.662 237.915L130.442 237.914Z" fill="#E9ECF2"/>
</g>
<g clip-path="url(#clip6_1_2553)">
<path d="M62.2151 246.168L63.4765 246.168L66.4404 253.414L66.5427 253.414L69.5106 246.17L70.7719 246.17L70.7695 254.898L69.7809 254.897L69.7827 248.267L69.6975 248.267L66.9684 254.897L66.0138 254.896L63.2884 248.265L63.2032 248.265L63.2013 254.896L62.2127 254.895L62.2151 246.168ZM74.6782 255.052C74.2635 255.052 73.8871 254.974 73.549 254.818C73.211 254.658 72.9426 254.43 72.7438 254.131C72.545 253.83 72.4457 253.466 72.4458 253.04C72.4459 252.665 72.5199 252.361 72.6677 252.128C72.8155 251.893 73.013 251.708 73.2602 251.575C73.5073 251.441 73.7801 251.342 74.0784 251.276C74.3796 251.208 74.6821 251.154 74.9861 251.115C75.3839 251.064 75.7063 251.025 75.9535 251C76.2035 250.972 76.3853 250.925 76.499 250.86C76.6155 250.794 76.6737 250.681 76.6738 250.519L76.6738 250.485C76.6739 250.064 76.559 249.737 76.3289 249.504C76.1017 249.271 75.7566 249.155 75.2935 249.155C74.8134 249.155 74.4369 249.26 74.1641 249.47C73.8914 249.68 73.6995 249.904 73.5887 250.143L72.6342 249.802C72.8048 249.404 73.0321 249.094 73.3163 248.873C73.6033 248.648 73.9158 248.492 74.2539 248.404C74.5949 248.314 74.9301 248.268 75.2596 248.268C75.4699 248.268 75.7113 248.294 75.9841 248.345C76.2596 248.394 76.5252 248.494 76.7808 248.648C77.0393 248.801 77.2537 249.033 77.4241 249.343C77.5945 249.652 77.6796 250.067 77.6795 250.587L77.6783 254.9L76.6726 254.899L76.6728 254.013L76.6217 254.013C76.5535 254.155 76.4398 254.307 76.2807 254.469C76.1215 254.631 75.9098 254.768 75.6456 254.882C75.3814 254.996 75.0589 255.052 74.6782 255.052ZM74.8319 254.149C75.2296 254.149 75.5649 254.071 75.8376 253.915C76.1132 253.759 76.3207 253.557 76.46 253.31C76.6021 253.063 76.6732 252.803 76.6732 252.53L76.6735 251.61C76.6309 251.661 76.5371 251.708 76.3922 251.75C76.2501 251.79 76.0854 251.825 75.8979 251.857C75.7132 251.885 75.5328 251.91 75.3566 251.933C75.1833 251.953 75.0427 251.97 74.9348 251.984C74.6734 252.018 74.429 252.073 74.2018 252.15C73.9773 252.224 73.7955 252.336 73.6562 252.487C73.5198 252.634 73.4516 252.836 73.4515 253.092C73.4514 253.441 73.5806 253.705 73.8391 253.884C74.1004 254.061 74.4313 254.149 74.8319 254.149ZM79.9265 257.355C79.7561 257.355 79.6041 257.34 79.4706 257.312C79.3371 257.286 79.2447 257.261 79.1936 257.235L79.4495 256.349C79.6938 256.412 79.9097 256.434 80.0972 256.417C80.2847 256.4 80.451 256.317 80.5959 256.166C80.7437 256.018 80.8787 255.778 81.0009 255.446L81.1886 254.935L78.7699 248.354L79.8608 248.355L81.6662 253.571L81.7344 253.571L83.5426 248.356L84.6336 248.356L81.8531 255.855C81.728 256.193 81.5731 256.473 81.3884 256.695C81.2036 256.919 80.9891 257.085 80.7447 257.193C80.5032 257.301 80.2305 257.355 79.9265 257.355Z" fill="#808D9E"/>
<path fill-rule="evenodd" clip-rule="evenodd" d="M74.3359 237.899L74.3864 54.8987L75.5787 54.899L75.5282 237.899L74.3359 237.899Z" fill="#E9ECF2"/>
</g>
<g clip-path="url(#clip7_1_2553)">
<path d="M12.9493 234.362L10.1229 242.137L8.96859 242.136L12.2229 233.606L12.967 233.606L12.9493 234.362ZM15.3143 242.138L12.4864 234.362L12.469 233.606L13.2131 233.606L16.4745 242.138L15.3143 242.138ZM15.1687 238.98L15.1684 239.906L10.3755 239.904L10.3757 238.979L15.1687 238.98ZM18.6241 237.018L18.622 244.576L17.5321 244.576L17.5346 235.799L18.5307 235.799L18.6241 237.018ZM22.895 238.918L22.895 239.041C22.8949 239.502 22.8401 239.929 22.7306 240.324C22.6211 240.714 22.4609 241.054 22.2498 241.343C22.0427 241.632 21.7868 241.857 21.4821 242.017C21.1773 242.177 20.8277 242.257 20.4332 242.257C20.0308 242.257 19.6754 242.19 19.3668 242.057C19.0583 241.924 18.7966 241.731 18.5818 241.477C18.3671 241.223 18.1953 240.918 18.0665 240.563C17.9416 240.207 17.8557 239.807 17.809 239.361L17.8092 238.705C17.8562 238.236 17.9442 237.817 18.0732 237.445C18.2022 237.074 18.3722 236.758 18.5832 236.496C18.7981 236.231 19.0579 236.03 19.3627 235.893C19.6674 235.753 20.019 235.682 20.4174 235.682C20.8159 235.683 21.1693 235.761 21.4779 235.917C21.7865 236.07 22.0462 236.288 22.257 236.574C22.4679 236.859 22.626 237.201 22.7313 237.599C22.8406 237.994 22.8952 238.433 22.895 238.918ZM21.8052 239.04L21.8052 238.917C21.8053 238.601 21.7722 238.304 21.7058 238.027C21.6395 237.745 21.5361 237.499 21.3955 237.288C21.2588 237.073 21.0831 236.905 20.8683 236.784C20.6535 236.659 20.3976 236.597 20.1008 236.596C19.8273 236.596 19.589 236.643 19.3859 236.737C19.1866 236.831 19.0167 236.957 18.876 237.118C18.7353 237.274 18.6201 237.453 18.5302 237.657C18.4442 237.856 18.3796 238.063 18.3366 238.278L18.3362 239.795C18.4143 240.069 18.5236 240.326 18.6641 240.569C18.8047 240.807 18.9921 241 19.2265 241.149C19.4608 241.294 19.7557 241.366 20.1112 241.366C20.4041 241.366 20.6561 241.306 20.8671 241.185C21.0819 241.06 21.2578 240.89 21.3946 240.675C21.5352 240.46 21.6388 240.214 21.7053 239.937C21.7718 239.655 21.8051 239.357 21.8052 239.04ZM25.4481 236.797L25.4467 242.141L24.3627 242.141L24.3644 235.801L25.4191 235.801L25.4481 236.797ZM27.4289 235.766L27.4228 236.774C27.3329 236.755 27.247 236.743 27.1649 236.739C27.0868 236.731 26.997 236.727 26.8954 236.727C26.6454 236.727 26.4247 236.766 26.2333 236.844C26.0419 236.922 25.8797 237.032 25.7469 237.172C25.614 237.313 25.5085 237.481 25.4303 237.676C25.356 237.867 25.3072 238.078 25.2837 238.309L24.9789 238.485C24.979 238.102 25.0162 237.742 25.0905 237.406C25.1688 237.07 25.288 236.774 25.4482 236.516C25.6084 236.254 25.8116 236.051 26.0578 235.907C26.3078 235.758 26.6047 235.684 26.9484 235.684C27.0266 235.684 27.1164 235.694 27.218 235.714C27.3195 235.729 27.3898 235.747 27.4289 235.766Z" fill="#92929D"/>
<path fill-rule="evenodd" clip-rule="evenodd" d="M19.4358 237.884L19.4863 54.8835L20.6785 54.8839L20.628 237.884L19.4358 237.884Z" fill="#F1F1F5"/>
</g>
<g filter="url(#filter0_d_1_2553)">
<path d="M188.06 62.9302C188.062 56.3028 193.436 50.9317 200.063 50.9335L248.063 50.9467C254.691 50.9486 260.062 56.3226 260.06 62.9501L260.056 76.9501C260.054 83.5775 254.68 88.9486 248.053 88.9467L188.053 88.9302L188.06 62.9302Z" fill="white"/>
</g>
<path d="M222.581 75.0789C221.842 75.0787 221.185 74.9543 220.612 74.7055C220.042 74.4568 219.595 74.1169 219.27 73.686C218.949 73.2517 218.79 72.7595 218.793 72.2093C218.79 71.7817 218.883 71.389 219.072 71.0311C219.261 70.6732 219.516 70.375 219.838 70.1364C220.163 69.8945 220.524 69.7405 220.922 69.6744L220.922 69.6047C220.398 69.4886 219.974 69.2217 219.649 68.804C219.328 68.383 219.169 67.8974 219.172 67.3472C219.169 66.8235 219.315 66.3562 219.61 65.9453C219.905 65.5344 220.31 65.2114 220.824 64.9762C221.337 64.7377 221.924 64.6185 222.584 64.6187C223.236 64.6189 223.818 64.7384 224.328 64.9771C224.842 65.2126 225.246 65.5359 225.541 65.9469C225.839 66.358 225.988 66.8254 225.988 67.349C225.988 67.8992 225.824 68.3847 225.496 68.8056C225.171 69.2231 224.751 69.4898 224.238 69.6057L224.238 69.6753C224.635 69.7417 224.993 69.8959 225.311 70.1379C225.633 70.3766 225.888 70.675 226.077 71.033C226.269 71.391 226.365 71.7838 226.365 72.2114C226.365 72.7616 226.202 73.2537 225.877 73.6878C225.552 74.1186 225.105 74.4582 224.535 74.7066C223.968 74.955 223.316 75.0791 222.581 75.0789ZM222.581 73.6571C222.962 73.6572 223.294 73.5926 223.575 73.4634C223.857 73.3309 224.076 73.1454 224.232 72.9068C224.388 72.6682 224.467 72.3931 224.471 72.0816C224.467 71.7568 224.383 71.4701 224.217 71.2214C224.055 70.9695 223.831 70.7722 223.546 70.6296C223.265 70.487 222.943 70.4157 222.582 70.4156C222.217 70.4155 221.893 70.4866 221.607 70.6291C221.322 70.7715 221.097 70.9687 220.931 71.2205C220.769 71.4691 220.689 71.7557 220.692 72.0805C220.689 72.3921 220.765 72.6672 220.921 72.9059C221.076 73.1413 221.295 73.3253 221.577 73.4579C221.862 73.5906 222.197 73.6569 222.581 73.6571ZM222.582 69.0186C222.894 69.0186 223.169 68.9557 223.408 68.8299C223.65 68.704 223.84 68.5284 223.98 68.303C224.119 68.0777 224.19 67.8175 224.194 67.5226C224.19 67.2309 224.121 66.9757 223.985 66.7569C223.849 66.5348 223.66 66.364 223.418 66.2446C223.176 66.1219 222.898 66.0606 222.583 66.0605C222.262 66.0604 221.978 66.1216 221.733 66.2442C221.491 66.3634 221.302 66.5341 221.166 66.7561C221.033 66.9748 220.969 67.23 220.972 67.5217C220.969 67.8166 221.035 68.0768 221.171 68.3023C221.31 68.5244 221.5 68.7001 221.742 68.8294C221.987 68.9554 222.267 69.0185 222.582 69.0186ZM227.998 74.9412L227.999 73.6088L231.535 70.1446C231.873 69.8033 232.155 69.5001 232.38 69.235C232.605 68.97 232.775 68.7131 232.887 68.4646C233 68.216 233.057 67.9509 233.057 67.6692C233.057 67.3477 232.984 67.0726 232.838 66.8438C232.692 66.6118 232.492 66.4328 232.237 66.3067C231.981 66.1807 231.692 66.1177 231.367 66.1176C231.032 66.1175 230.739 66.187 230.487 66.3261C230.235 66.462 230.039 66.6558 229.9 66.9077C229.764 67.1595 229.696 67.4594 229.696 67.8075L227.941 67.807C227.941 67.1607 228.089 66.5989 228.384 66.1217C228.679 65.6445 229.085 65.2751 229.602 65.0134C230.123 64.7517 230.719 64.6209 231.392 64.6211C232.075 64.6213 232.675 64.7491 233.192 65.0044C233.709 65.2598 234.109 65.6096 234.394 66.0538C234.683 66.498 234.827 67.0051 234.827 67.5752C234.826 67.9564 234.753 68.3309 234.607 68.6987C234.462 69.0666 234.205 69.4742 233.837 69.9215C233.472 70.3689 232.96 70.9106 232.3 71.5468L230.544 73.3311L230.544 73.4007L234.979 73.402L234.979 74.9431L227.998 74.9412ZM240.457 75.1386C239.639 75.1383 238.936 74.931 238.349 74.5165C237.766 74.0987 237.317 73.4971 237.003 72.7115C236.691 71.9225 236.536 70.9729 236.536 69.8626C236.54 68.7523 236.697 67.8077 237.009 67.0289C237.324 66.2468 237.774 65.6504 238.357 65.2395C238.944 64.8287 239.645 64.6234 240.46 64.6236C241.275 64.6239 241.976 64.8295 242.563 65.2407C243.149 65.6518 243.598 66.2486 243.91 67.0308C244.224 67.8131 244.382 68.7578 244.381 69.8648C244.381 70.9784 244.223 71.9296 243.908 72.7183C243.596 73.5038 243.147 74.1035 242.56 74.5177C241.977 74.9318 241.276 75.1388 240.457 75.1386ZM240.458 73.5824C241.094 73.5826 241.596 73.2695 241.964 72.6432C242.336 72.0136 242.522 71.0873 242.522 69.8643C242.522 69.0556 242.438 68.3761 242.269 67.8258C242.1 67.2756 241.862 66.8612 241.553 66.5827C241.245 66.3009 240.881 66.16 240.46 66.1599C239.827 66.1597 239.326 66.4744 238.958 67.104C238.59 67.7304 238.404 68.6501 238.4 69.8631C238.397 70.6752 238.478 71.3579 238.644 71.9115C238.812 72.465 239.051 72.8827 239.359 73.1645C239.667 73.443 240.033 73.5823 240.458 73.5824Z" fill="#1D1E25"/>
<rect x="199.059" y="65.0757" width="10" height="10" rx="2" transform="rotate(0.0158183 199.059 65.0757)" fill="#2280FF"/>
<path d="M-8.96356 148.762C-4.46526 150.61 6.16977 155.759 12.7236 161.577C20.9158 168.848 47.4244 176.817 63.3356 159.514C79.2469 142.21 86.4788 135.981 98.0472 135.984C109.616 135.987 117.328 133.566 130.348 115.569C143.367 97.5721 147.614 88.8766 163.614 88.9235C179.082 88.9689 186.909 99.6611 190.602 105.547L199.275 119.05C202.808 124.705 212.31 134.284 226.224 135.307C240.138 136.331 250.837 131.158 261.936 122.529C272.272 114.492 290.379 105.921 305.799 122.541C318.135 135.837 324.432 140.547 326.039 141.239" stroke="#2280FF" stroke-width="3" stroke-linecap="round"/>
<path d="M-32.9654 155.49C-27.7552 156.837 -15.437 160.589 -7.84569 164.827C1.6435 170.124 32.3469 175.932 50.7734 163.33C69.1999 150.728 77.5753 146.191 90.9739 146.195C104.372 146.199 113.305 144.436 128.382 131.329C143.459 118.222 148.377 111.888 166.908 111.924C184.824 111.959 193.89 119.748 198.168 124.036L208.215 133.872C212.308 137.992 223.313 144.97 239.429 145.717C255.545 146.465 267.936 142.698 280.79 136.414C292.76 130.561 313.731 124.32 331.592 136.428C345.882 146.114 353.175 149.545 355.036 150.05" stroke="#FF5555" stroke-width="3" stroke-linecap="round"/>
</g>
<rect x="-0.0463867" y="50.8782" width="59.78" height="203" transform="rotate(0.0158183 -0.0463867 50.8782)" fill="white"/>
<path d="M15.5128 60.1552L15.5104 68.8824L14.4536 68.8822L14.4557 61.2628L14.4045 61.2628L12.2735 62.677L12.2738 61.6031L14.456 60.1549L15.5128 60.1552ZM19.0612 66.4971L19.0445 65.2527L19.2491 65.2528L22.1135 62.3388L23.3579 62.3392L20.3059 65.4235L20.2206 65.4235L19.0612 66.4971ZM18.1231 68.8832L18.1255 60.1559L19.1312 60.1562L19.1288 68.8834L18.1231 68.8832ZM22.2822 68.8843L19.7263 65.645L20.4424 64.9463L23.5606 68.8847L22.2822 68.8843Z" fill="#808D9E"/>
<path d="M22.562 239.004C21.9199 239.004 21.3731 238.829 20.9215 238.479C20.4699 238.127 20.1248 237.617 19.8864 236.949C19.6479 236.279 19.5288 235.469 19.5291 234.52C19.5294 233.577 19.6489 232.772 19.8877 232.104C20.1294 231.434 20.4761 230.922 20.9279 230.57C21.3826 230.215 21.9281 230.038 22.5644 230.038C23.2008 230.038 23.7448 230.216 24.1964 230.571C24.6508 230.924 24.9973 231.435 25.2357 232.105C25.477 232.773 25.5975 233.579 25.5973 234.522C25.597 235.471 25.4775 236.28 25.2387 236.951C24.9998 237.618 24.6545 238.128 24.2027 238.48C23.7509 238.83 23.204 239.004 22.562 239.004ZM22.5622 238.066C23.1986 238.067 23.693 237.76 24.0454 237.146C24.3979 236.533 24.5742 235.658 24.5746 234.521C24.5748 233.766 24.494 233.122 24.3322 232.591C24.1732 232.06 23.9432 231.655 23.6422 231.376C23.344 231.098 22.9846 230.959 22.5642 230.958C21.9335 230.958 21.4405 231.269 21.0852 231.891C20.7299 232.51 20.5521 233.387 20.5518 234.52C20.5516 235.276 20.631 235.918 20.7899 236.447C20.9489 236.975 21.1775 237.377 21.4757 237.653C21.7767 237.928 22.1389 238.066 22.5622 238.066Z" fill="#808D9E"/>
<g clip-path="url(#clip8_1_2553)">
<path d="M2.6446 204.879L2.64481 204.112L5.52636 200.959C5.86453 200.59 6.14303 200.269 6.36185 199.996C6.58068 199.721 6.74268 199.462 6.84786 199.221C6.95589 198.977 7.00993 198.721 7.01001 198.454C7.01009 198.147 6.9363 197.882 6.78864 197.657C6.64381 197.433 6.445 197.259 6.19219 197.137C5.93938 197.015 5.65531 196.954 5.33997 196.954C5.00474 196.953 4.71211 197.023 4.46207 197.162C4.21487 197.298 4.02306 197.49 3.88663 197.737C3.75303 197.984 3.68619 198.274 3.6861 198.606L2.68042 198.606C2.68056 198.095 2.79858 197.646 3.03448 197.26C3.27039 196.873 3.59149 196.572 3.9978 196.357C4.40695 196.141 4.86579 196.033 5.37431 196.033C5.88568 196.033 6.33877 196.141 6.7336 196.357C7.12842 196.573 7.438 196.865 7.66233 197.231C7.88666 197.598 7.99877 198.005 7.99864 198.454C7.99856 198.775 7.94023 199.089 7.82367 199.396C7.70995 199.7 7.51099 200.039 7.2268 200.414C6.94544 200.786 6.55469 201.241 6.05454 201.778L4.09374 203.874L4.09372 203.942L8.15054 203.943L8.15028 204.88L2.6446 204.879ZM12.8425 205.001C12.2004 205.001 11.6536 204.826 11.202 204.476C10.7504 204.124 10.4054 203.614 10.1669 202.946C9.92847 202.276 9.80938 201.466 9.80964 200.517C9.8099 199.574 9.92944 198.769 10.1683 198.101C10.4099 197.431 10.7567 196.92 11.2085 196.567C11.6631 196.212 12.2086 196.035 12.845 196.035C13.4813 196.035 14.0253 196.213 14.4769 196.568C14.9314 196.921 15.2778 197.432 15.5163 198.103C15.7576 198.77 15.8781 199.576 15.8778 200.519C15.8776 201.468 15.758 202.277 15.5192 202.948C15.2804 203.615 14.9351 204.125 14.4833 204.477C14.0315 204.827 13.4845 205.001 12.8425 205.001ZM12.8428 204.064C13.4791 204.064 13.9735 203.757 14.326 203.143C14.6784 202.53 14.8548 201.655 14.8551 200.519C14.8553 199.763 14.7745 199.119 14.6127 198.588C14.4538 198.057 14.2238 197.652 13.9227 197.374C13.6245 197.095 13.2652 196.956 12.8447 196.956C12.214 196.955 11.721 197.266 11.3658 197.888C11.0105 198.508 10.8327 199.384 10.8324 200.518C10.8322 201.273 10.9115 201.915 11.0705 202.444C11.2294 202.972 11.458 203.374 11.7562 203.65C12.0573 203.926 12.4195 204.063 12.8428 204.064ZM20.4282 205.003C19.7862 205.003 19.2393 204.828 18.7877 204.479C18.3361 204.126 17.9911 203.616 17.7526 202.948C17.5142 202.278 17.3951 201.468 17.3954 200.519C17.3956 199.576 17.5152 198.771 17.754 198.103C17.9956 197.433 18.3424 196.922 18.7942 196.569C19.2488 196.214 19.7943 196.037 20.4307 196.037C21.067 196.037 21.611 196.215 22.0626 196.57C22.5171 196.923 22.8635 197.434 23.102 198.105C23.3433 198.772 23.4638 199.578 23.4635 200.521C23.4633 201.47 23.3437 202.28 23.1049 202.95C22.8661 203.617 22.5208 204.127 22.069 204.479C21.6172 204.829 21.0703 205.003 20.4282 205.003ZM20.4285 204.066C21.0648 204.066 21.5592 203.759 21.9117 203.146C22.2641 202.532 22.4405 201.657 22.4408 200.521C22.441 199.765 22.3602 199.122 22.1984 198.59C22.0395 198.059 21.8095 197.654 21.5084 197.376C21.2102 197.097 20.8509 196.958 20.4304 196.958C19.7997 196.958 19.3068 197.268 18.9515 197.891C18.5962 198.51 18.4184 199.386 18.4181 200.52C18.4179 201.275 18.4972 201.917 18.6562 202.446C18.8151 202.974 19.0437 203.376 19.3419 203.652C19.643 203.928 20.0052 204.066 20.4285 204.066Z" fill="#808D9E"/>
</g>
<g clip-path="url(#clip9_1_2553)">
<path d="M2.45007 169.089L2.45031 168.22L6.28721 162.153L6.91789 162.153L6.91752 163.499L6.49138 163.499L3.59239 168.084L3.59237 168.152L8.75714 168.153L8.75689 169.091L2.45007 169.089ZM6.55753 170.88L6.55809 168.826L6.55821 168.421L6.55994 162.153L7.56562 162.153L7.56321 170.88L6.55753 170.88ZM13.2856 171.001C12.6436 171.001 12.0967 170.826 11.6451 170.477C11.1935 170.124 10.8485 169.614 10.61 168.946C10.3716 168.276 10.2525 167.466 10.2528 166.517C10.253 165.574 10.3726 164.769 10.6114 164.101C10.853 163.431 11.1998 162.92 11.6516 162.567C12.1062 162.212 12.6517 162.035 13.2881 162.035C13.9244 162.035 14.4684 162.213 14.92 162.568C15.3745 162.921 15.7209 163.432 15.9594 164.103C16.2007 164.77 16.3212 165.576 16.3209 166.519C16.3207 167.468 16.2011 168.278 15.9623 168.948C15.7235 169.615 15.3782 170.125 14.9264 170.477C14.4746 170.827 13.9277 171.001 13.2856 171.001ZM13.2859 170.064C13.9222 170.064 14.4166 169.757 14.7691 169.144C15.1215 168.53 15.2979 167.655 15.2982 166.519C15.2984 165.763 15.2176 165.12 15.0558 164.588C14.8969 164.057 14.6669 163.652 14.3658 163.374C14.0676 163.095 13.7083 162.956 13.2878 162.956C12.6571 162.956 12.1642 163.266 11.8089 163.889C11.4536 164.508 11.2758 165.384 11.2755 166.518C11.2753 167.273 11.3546 167.915 11.5136 168.444C11.6725 168.972 11.9011 169.374 12.1993 169.65C12.5004 169.926 12.8626 170.064 13.2859 170.064ZM20.8713 171.003C20.2293 171.003 19.6825 170.828 19.2308 170.479C18.7792 170.126 18.4342 169.616 18.1958 168.949C17.9573 168.278 17.8382 167.468 17.8385 166.519C17.8387 165.576 17.9583 164.771 18.1971 164.103C18.4388 163.433 18.7855 162.922 19.2373 162.57C19.6919 162.215 20.2374 162.037 20.8738 162.037C21.5102 162.038 22.0541 162.215 22.5058 162.57C22.9602 162.923 23.3067 163.434 23.5451 164.105C23.7864 164.773 23.9069 165.578 23.9067 166.521C23.9064 167.47 23.7868 168.28 23.548 168.95C23.3092 169.618 22.9639 170.127 22.5121 170.48C22.0603 170.829 21.5134 171.003 20.8713 171.003ZM20.8716 170.066C21.5079 170.066 22.0023 169.759 22.3548 169.146C22.7072 168.532 22.8836 167.657 22.8839 166.521C22.8841 165.765 22.8033 165.122 22.6416 164.59C22.4826 164.059 22.2526 163.654 21.9516 163.376C21.6533 163.097 21.294 162.958 20.8735 162.958C20.2429 162.958 19.7499 163.269 19.3946 163.891C19.0393 164.51 18.8615 165.386 18.8612 166.52C18.861 167.275 18.9404 167.917 19.0993 168.446C19.2582 168.974 19.4868 169.376 19.785 169.652C20.0861 169.928 20.4483 170.066 20.8716 170.066Z" fill="#808D9E"/>
</g>
<g clip-path="url(#clip10_1_2553)">
<path d="M5.56109 136.999C5.20314 136.993 4.8452 136.925 4.48728 136.794C4.12936 136.663 3.80272 136.443 3.50735 136.133C3.21198 135.821 2.97488 135.399 2.79605 134.868C2.61722 134.333 2.52792 133.663 2.52814 132.856C2.52836 132.083 2.60099 131.399 2.74604 130.802C2.89109 130.203 3.10146 129.699 3.37714 129.29C3.65282 128.878 3.98529 128.565 4.37456 128.352C4.76666 128.139 5.20845 128.033 5.69993 128.033C6.18857 128.033 6.6232 128.131 7.00383 128.328C7.38729 128.521 7.69972 128.791 7.9411 129.137C8.18248 129.484 8.33862 129.883 8.40952 130.335L7.36975 130.335C7.27327 129.943 7.08586 129.617 6.80752 129.359C6.52918 129.1 6.1599 128.971 5.69967 128.971C5.02353 128.97 4.49078 129.264 4.10142 129.852C3.71489 130.44 3.52006 131.266 3.51693 132.328L3.58511 132.328C3.74426 132.087 3.93324 131.881 4.15204 131.71C4.37368 131.537 4.61803 131.404 4.8851 131.31C5.15218 131.216 5.43486 131.169 5.73315 131.17C6.23315 131.17 6.69051 131.295 7.10521 131.545C7.51991 131.792 7.85221 132.135 8.10209 132.572C8.35197 133.007 8.47683 133.506 8.47667 134.068C8.47652 134.608 8.35565 135.102 8.11405 135.551C7.87245 135.997 7.53286 136.352 7.09529 136.616C6.66056 136.877 6.14916 137.005 5.56109 136.999ZM5.56135 136.062C5.9193 136.062 6.24035 135.972 6.52449 135.793C6.81147 135.614 7.03739 135.374 7.20225 135.073C7.36994 134.772 7.45384 134.437 7.45395 134.068C7.45404 133.707 7.37317 133.379 7.21132 133.083C7.05231 132.785 6.83221 132.548 6.551 132.371C6.27264 132.195 5.95449 132.107 5.59653 132.107C5.32665 132.107 5.07521 132.161 4.84223 132.269C4.60924 132.374 4.40466 132.519 4.22847 132.703C4.05512 132.888 3.9187 133.099 3.8192 133.338C3.71971 133.574 3.66992 133.822 3.66985 134.084C3.66975 134.43 3.75063 134.754 3.91248 135.055C4.07717 135.357 4.30153 135.6 4.58557 135.784C4.87245 135.969 5.19771 136.061 5.56135 136.062ZM13.0839 137.001C12.4419 137.001 11.8951 136.826 11.4435 136.477C10.9919 136.124 10.6468 135.614 10.4084 134.946C10.1699 134.276 10.0508 133.466 10.0511 132.517C10.0514 131.574 10.1709 130.769 10.4097 130.101C10.6514 129.431 10.9981 128.92 11.4499 128.567C11.9046 128.212 12.4501 128.035 13.0864 128.035C13.7228 128.035 14.2668 128.213 14.7184 128.568C15.1728 128.921 15.5193 129.432 15.7577 130.103C15.999 130.77 16.1195 131.576 16.1193 132.519C16.119 133.468 15.9995 134.277 15.7607 134.948C15.5218 135.615 15.1765 136.125 14.7247 136.477C14.2729 136.827 13.726 137.001 13.0839 137.001ZM13.0842 136.064C13.7206 136.064 14.215 135.757 14.5674 135.144C14.9199 134.53 15.0962 133.655 15.0966 132.519C15.0968 131.763 15.016 131.12 14.8542 130.588C14.6952 130.057 14.4652 129.652 14.1642 129.374C13.866 129.095 13.5066 128.956 13.0862 128.956C12.4555 128.955 11.9625 129.266 11.6072 129.888C11.2519 130.508 11.0741 131.384 11.0738 132.518C11.0736 133.273 11.153 133.915 11.3119 134.444C11.4709 134.972 11.6995 135.374 11.9977 135.65C12.2987 135.926 12.6609 136.063 13.0842 136.064ZM20.6697 137.003C20.0276 137.003 19.4808 136.828 19.0292 136.479C18.5776 136.126 18.2325 135.616 17.9941 134.948C17.7556 134.278 17.6365 133.468 17.6368 132.519C17.6371 131.576 17.7566 130.771 17.9954 130.103C18.2371 129.433 18.5838 128.922 19.0356 128.57C19.4903 128.215 20.0358 128.037 20.6721 128.037C21.3085 128.037 21.8525 128.215 22.3041 128.57C22.7585 128.923 23.105 129.434 23.3434 130.105C23.5847 130.772 23.7053 131.578 23.705 132.521C23.7047 133.47 23.5852 134.28 23.3464 134.95C23.1075 135.618 22.7622 136.127 22.3104 136.48C21.8586 136.829 21.3117 137.003 20.6697 137.003ZM20.6699 136.066C21.3063 136.066 21.8007 135.759 22.1531 135.146C22.5056 134.532 22.682 133.657 22.6823 132.521C22.6825 131.765 22.6017 131.122 22.4399 130.59C22.281 130.059 22.051 129.654 21.7499 129.376C21.4517 129.097 21.0923 128.958 20.6719 128.958C20.0412 128.958 19.5482 129.269 19.1929 129.891C18.8376 130.51 18.6599 131.386 18.6595 132.52C18.6593 133.275 18.7387 133.917 18.8976 134.446C19.0566 134.974 19.2852 135.376 19.5834 135.652C19.8844 135.928 20.2466 136.066 20.6699 136.066Z" fill="#808D9E"/>
</g>
<g clip-path="url(#clip11_1_2553)">
<path d="M5.46834 102.999C4.88311 102.999 4.3661 102.895 3.91729 102.687C3.47132 102.477 3.12339 102.189 2.87349 101.822C2.6236 101.453 2.50013 101.032 2.5031 100.561C2.50036 100.191 2.5729 99.8505 2.72071 99.538C2.86853 99.2227 3.07031 98.96 3.32605 98.7498C3.58463 98.5368 3.87302 98.402 4.19121 98.3452L4.19123 98.2941C3.77364 98.186 3.44132 97.9516 3.19426 97.5907C2.94721 97.227 2.82516 96.8136 2.82813 96.3505C2.82541 95.9074 2.93774 95.5111 3.1651 95.1617C3.39247 94.8123 3.70505 94.5369 4.10283 94.3353C4.50346 94.1337 4.95945 94.033 5.47081 94.0331C5.9765 94.0332 6.42817 94.1342 6.82584 94.336C7.22352 94.5378 7.53594 94.8135 7.76312 95.163C7.99313 95.5125 8.1095 95.9088 8.11222 96.352C8.10925 96.8151 7.98272 97.2284 7.73262 97.592C7.48536 97.9527 7.15717 98.187 6.74805 98.2948L6.74803 98.3459C7.06336 98.4028 7.34741 98.5379 7.60019 98.751C7.85298 98.9613 8.05461 99.2241 8.20509 99.5395C8.35557 99.8521 8.43218 100.193 8.43492 100.562C8.43195 101.034 8.30399 101.454 8.05105 101.824C7.80095 102.19 7.45286 102.478 7.00678 102.688C6.56354 102.896 6.05073 102.999 5.46834 102.999ZM5.4686 102.062C5.86348 102.062 6.20441 101.998 6.49138 101.87C6.77835 101.742 6.99999 101.562 7.1563 101.329C7.31261 101.096 7.39224 100.823 7.39516 100.511C7.39241 100.181 7.30727 99.8901 7.13972 99.6372C6.97218 99.3844 6.74354 99.1854 6.45381 99.0405C6.16692 98.8955 5.83881 98.823 5.46949 98.8229C5.09733 98.8228 4.76493 98.8951 4.47227 99.0399C4.18246 99.1847 3.95371 99.3835 3.78603 99.6363C3.62119 99.8891 3.54014 100.18 3.54289 100.51C3.53996 100.822 3.61517 101.095 3.76852 101.328C3.9247 101.561 4.14766 101.742 4.4374 101.869C4.72714 101.997 5.07087 102.061 5.4686 102.062ZM5.46974 97.9195C5.78224 97.9195 6.05925 97.8571 6.30076 97.7322C6.54511 97.6073 6.73692 97.4326 6.87619 97.2082C7.01545 96.9838 7.08655 96.721 7.08947 96.4199C7.08671 96.1244 7.01718 95.8673 6.88088 95.6485C6.74458 95.4269 6.5557 95.2564 6.31426 95.137C6.07282 95.0148 5.79158 94.9536 5.47056 94.9535C5.14386 94.9535 4.85833 95.0145 4.61398 95.1365C4.36962 95.2558 4.18066 95.4262 4.04707 95.6478C3.91349 95.8665 3.84808 96.1236 3.85084 96.419C3.84791 96.7201 3.9146 96.9829 4.0509 97.2074C4.19005 97.4319 4.38176 97.6067 4.62604 97.7317C4.87033 97.8568 5.15156 97.9194 5.46974 97.9195ZM12.9997 103.001C12.3577 103.001 11.8108 102.826 11.3592 102.476C10.9076 102.124 10.5626 101.614 10.3242 100.946C10.0857 100.276 9.96661 99.4662 9.96687 98.5173C9.96713 97.5741 10.0867 96.7687 10.3255 96.1012C10.5672 95.4308 10.9139 94.9195 11.3657 94.5674C11.8203 94.2124 12.3658 94.035 13.0022 94.0352C13.6386 94.0353 14.1825 94.2131 14.6342 94.5683C15.0886 94.9207 15.435 95.4321 15.6735 96.1027C15.9148 96.7704 16.0353 97.5758 16.035 98.519C16.0348 99.4678 15.9152 100.277 15.6764 100.948C15.4376 101.615 15.0923 102.125 14.6405 102.477C14.1887 102.827 13.6418 103.001 12.9997 103.001ZM13 102.064C13.6363 102.064 14.1307 101.757 14.4832 101.144C14.8356 100.53 15.012 99.655 15.0123 98.5187C15.0125 97.763 14.9317 97.1195 14.77 96.5882C14.611 96.0569 14.381 95.652 14.08 95.3735C13.7817 95.095 13.4224 94.9557 13.0019 94.9556C12.3713 94.9555 11.8783 95.2664 11.523 95.8885C11.1677 96.5077 10.9899 97.384 10.9896 98.5176C10.9894 99.2733 11.0688 99.9153 11.2277 100.444C11.3866 100.972 11.6152 101.374 11.9134 101.65C12.2145 101.926 12.5767 102.063 13 102.064ZM20.5854 103.003C19.9434 103.003 19.3966 102.828 18.945 102.479C18.4933 102.126 18.1483 101.616 17.9099 100.948C17.6714 100.278 17.5523 99.4682 17.5526 98.5194C17.5528 97.5762 17.6724 96.7708 17.9112 96.1033C18.1529 95.4329 18.4996 94.9216 18.9514 94.5695C19.406 94.2145 19.9515 94.0371 20.5879 94.0373C21.2243 94.0374 21.7683 94.2151 22.2199 94.5704C22.6743 94.9228 23.0208 95.4342 23.2592 96.1048C23.5005 96.7724 23.621 97.5779 23.6208 98.5211C23.6205 99.4699 23.501 100.28 23.2621 100.95C23.0233 101.617 22.678 102.127 22.2262 102.479C21.7744 102.829 21.2275 103.003 20.5854 103.003ZM20.5857 102.066C21.2221 102.066 21.7165 101.759 22.0689 101.146C22.4213 100.532 22.5977 99.6571 22.598 98.5208C22.5982 97.7651 22.5175 97.1216 22.3557 96.5903C22.1967 96.059 21.9667 95.6541 21.6657 95.3756C21.3674 95.0971 21.0081 94.9578 20.5877 94.9577C19.957 94.9575 19.464 95.2685 19.1087 95.8906C18.7534 96.5098 18.5756 97.3861 18.5753 98.5197C18.5751 99.2753 18.6545 99.9174 18.8134 100.446C18.9724 100.974 19.2009 101.376 19.4992 101.652C19.8002 101.928 20.1624 102.066 20.5857 102.066Z" fill="#808D9E"/>
</g>
<g filter="url(#filter1_d_1_2553)">
<rect x="172.054" y="84.9258" width="14" height="14" rx="7" transform="rotate(0.0158183 172.054 84.9258)" fill="#2280FF"/>
<rect x="173.054" y="85.9261" width="12" height="12" rx="6" transform="rotate(0.0158183 173.054 85.9261)" stroke="white" stroke-width="2"/>
</g>
<rect x="169.543" y="15.925" width="12.2" height="10" rx="2" transform="rotate(0.0158183 169.543 15.925)" fill="#FF5555"/>
<path d="M200.929 18.9338L199.696 18.9334C199.623 18.5788 199.495 18.2672 199.313 17.9986C199.134 17.7301 198.915 17.5047 198.657 17.3223C198.402 17.1367 198.118 16.9974 197.807 16.9045C197.495 16.8116 197.171 16.7651 196.833 16.765C196.216 16.7648 195.658 16.9205 195.157 17.2319C194.66 17.5433 194.264 18.0022 193.968 18.6087C193.677 19.2151 193.531 19.9592 193.53 20.8408C193.53 21.7224 193.676 22.4666 193.967 23.0732C194.262 23.6798 194.658 24.1389 195.155 24.4506C195.655 24.7623 196.214 24.9182 196.83 24.9184C197.168 24.9185 197.493 24.8722 197.805 24.7795C198.116 24.6868 198.4 24.5493 198.655 24.3671C198.914 24.1815 199.132 23.9546 199.311 23.6861C199.494 23.4144 199.622 23.1029 199.695 22.7516L200.927 22.7519C200.835 23.2723 200.665 23.7379 200.42 24.1488C200.175 24.5597 199.87 24.9093 199.505 25.1976C199.14 25.4825 198.731 25.6995 198.277 25.8485C197.826 25.9975 197.344 26.072 196.83 26.0718C195.962 26.0716 195.189 25.8593 194.513 25.4348C193.837 25.0104 193.306 24.407 192.918 23.6247C192.53 22.8424 192.337 21.9143 192.337 20.8405C192.337 19.7666 192.532 18.8386 192.92 18.0565C193.308 17.2745 193.84 16.6714 194.516 16.2473C195.192 15.8233 195.964 15.6114 196.833 15.6116C197.347 15.6117 197.829 15.6864 198.28 15.8357C198.734 15.985 199.143 16.2039 199.507 16.4923C199.872 16.7774 200.177 17.1255 200.422 17.5366C200.667 17.9443 200.836 18.4101 200.929 18.9338ZM205.362 26.0941C204.673 26.0939 204.068 25.9296 203.548 25.6014C203.031 25.2731 202.626 24.814 202.335 24.2239C202.047 23.6339 201.903 22.9444 201.903 22.1556C201.903 21.3602 202.048 20.6658 202.336 20.0726C202.628 19.4794 203.032 19.0189 203.55 18.6909C204.07 18.3629 204.675 18.199 205.364 18.1992C206.054 18.1994 206.657 18.3636 207.174 18.6919C207.694 19.0201 208.098 19.481 208.386 20.0743C208.678 20.6677 208.824 21.3621 208.823 22.1575C208.823 22.9464 208.677 23.6357 208.385 24.2256C208.097 24.8155 207.692 25.2744 207.172 25.6024C206.655 25.9304 206.051 26.0943 205.362 26.0941ZM205.362 25.0401C205.886 25.0402 206.317 24.9061 206.655 24.6377C206.993 24.3694 207.244 24.0165 207.406 23.579C207.569 23.1416 207.65 22.6676 207.65 22.1572C207.65 21.6468 207.569 21.1711 207.407 20.7303C207.245 20.2894 206.994 19.9331 206.656 19.6612C206.319 19.3893 205.888 19.2533 205.364 19.2532C204.84 19.253 204.409 19.3888 204.071 19.6605C203.733 19.9322 203.483 20.2884 203.32 20.7292C203.158 21.1699 203.076 21.6455 203.076 22.1559C203.076 22.6664 203.157 23.1403 203.319 23.5779C203.482 24.0154 203.732 24.3685 204.07 24.637C204.408 24.9056 204.839 25.0399 205.362 25.0401ZM210.113 25.9363L210.115 18.2999L211.249 18.3002L211.249 19.4934L211.348 19.4934C211.507 19.0858 211.764 18.7694 212.119 18.5441C212.474 18.3155 212.9 18.2013 213.397 18.2014C213.901 18.2015 214.32 18.316 214.654 18.5448C214.992 18.7703 215.256 19.0869 215.445 19.4946L215.524 19.4946C215.72 19.1002 216.013 18.7871 216.404 18.5552C216.796 18.32 217.265 18.2025 217.812 18.2026C218.494 18.2028 219.053 18.4167 219.487 18.8444C219.921 19.2688 220.138 19.9301 220.138 20.8283L220.136 25.9391L218.963 25.9387L218.964 20.8279C218.964 20.2645 218.81 19.8617 218.502 19.6197C218.194 19.3777 217.831 19.2566 217.414 19.2565C216.877 19.2563 216.461 19.4186 216.166 19.7434C215.87 20.0648 215.723 20.4724 215.723 20.9662L215.721 25.9378L214.528 25.9375L214.53 20.7074C214.53 20.2732 214.389 19.9235 214.107 19.6583C213.826 19.3897 213.463 19.2554 213.019 19.2553C212.714 19.2552 212.429 19.3363 212.163 19.4986C211.902 19.661 211.689 19.8863 211.527 20.1746C211.368 20.4596 211.288 20.7894 211.288 21.1639L211.287 25.9366L210.113 25.9363ZM221.781 28.8031L221.783 18.3031L222.917 18.3035L222.917 19.5165L223.056 19.5166C223.142 19.384 223.261 19.215 223.414 19.0096C223.57 18.8008 223.792 18.6153 224.08 18.4529C224.372 18.2873 224.766 18.2045 225.264 18.2047C225.907 18.2049 226.473 18.3658 226.964 18.6874C227.454 19.009 227.837 19.4649 228.112 20.0549C228.387 20.6449 228.524 21.341 228.524 22.1431C228.524 22.9518 228.386 23.6527 228.111 24.2459C227.835 24.8358 227.454 25.2931 226.967 25.6178C226.48 25.9392 225.918 26.0997 225.281 26.0996C224.791 26.0994 224.398 26.0181 224.103 25.8556C223.808 25.6898 223.581 25.5025 223.422 25.2937C223.263 25.0815 223.141 24.9058 223.054 24.7666L222.955 24.7665L222.954 28.8035L221.781 28.8031ZM222.936 22.1216C222.936 22.6984 223.02 23.2071 223.189 23.648C223.358 24.0855 223.605 24.4287 223.929 24.6773C224.254 24.9227 224.652 25.0454 225.123 25.0455C225.613 25.0457 226.022 24.9165 226.351 24.6581C226.682 24.3964 226.931 24.0451 227.097 23.6043C227.266 23.1602 227.35 22.6664 227.351 22.1229C227.351 21.5859 227.268 21.102 227.102 20.6711C226.94 20.2369 226.693 19.8938 226.362 19.6418C226.034 19.3865 225.621 19.2588 225.124 19.2586C224.647 19.2585 224.246 19.3793 223.921 19.6212C223.596 19.8598 223.351 20.1944 223.185 20.6253C223.019 21.0528 222.936 21.5516 222.936 22.1216ZM233.014 26.1017C232.278 26.1015 231.644 25.9389 231.11 25.614C230.58 25.2857 230.171 24.8282 229.883 24.2415C229.598 23.6514 229.455 22.9653 229.456 22.1831C229.456 21.4009 229.599 20.7116 229.884 20.115C230.172 19.5152 230.574 19.048 231.087 18.7134C231.604 18.3755 232.208 18.2066 232.897 18.2068C233.295 18.2069 233.688 18.2733 234.075 18.406C234.463 18.5387 234.816 18.7542 235.134 19.0526C235.452 19.3476 235.706 19.7388 235.894 20.2261C236.083 20.7133 236.178 21.3133 236.177 22.0259L236.177 22.523L230.291 22.5214L230.291 21.5072L234.984 21.5085C234.984 21.0776 234.898 20.6931 234.726 20.355C234.557 20.0169 234.315 19.75 234 19.5544C233.689 19.3588 233.321 19.2609 232.897 19.2608C232.43 19.2606 232.025 19.3765 231.684 19.6084C231.346 19.837 231.085 20.1353 230.903 20.5031C230.72 20.871 230.629 21.2653 230.629 21.6863L230.629 22.3624C230.629 22.9391 230.728 23.428 230.927 23.8291C231.129 24.2269 231.409 24.5302 231.767 24.7391C232.125 24.9447 232.541 25.0476 233.015 25.0477C233.323 25.0478 233.601 25.0048 233.85 24.9187C234.102 24.8293 234.319 24.6968 234.501 24.5211C234.684 24.3422 234.824 24.1202 234.924 23.8551L236.057 24.1736C235.938 24.558 235.737 24.896 235.456 25.1876C235.174 25.4759 234.826 25.7012 234.411 25.8635C233.997 26.0224 233.531 26.1018 233.014 26.1017ZM240.784 18.3084L240.784 19.3027L236.827 19.3016L236.827 18.3073L240.784 18.3084ZM237.981 16.4781L239.154 16.4784L239.152 23.7568C239.152 24.0882 239.2 24.3368 239.296 24.5026C239.395 24.665 239.521 24.7744 239.674 24.8308C239.829 24.8839 239.994 24.9104 240.166 24.9105C240.295 24.9105 240.401 24.9039 240.484 24.8907C240.567 24.8741 240.633 24.8609 240.683 24.851L240.921 25.905C240.842 25.9348 240.731 25.9646 240.588 25.9944C240.446 26.0275 240.265 26.044 240.046 26.044C239.715 26.0439 239.39 25.9725 239.072 25.8299C238.757 25.6873 238.495 25.4702 238.287 25.1784C238.081 24.8867 237.978 24.5188 237.979 24.0747L237.981 16.4781ZM242.047 25.9451L242.049 18.3087L243.222 18.3091L243.22 25.9454L242.047 25.9451ZM242.646 17.0362C242.417 17.0361 242.22 16.9582 242.054 16.8024C241.892 16.6465 241.811 16.4592 241.811 16.2405C241.811 16.0217 241.892 15.8345 242.055 15.6788C242.221 15.523 242.418 15.4452 242.646 15.4453C242.875 15.4453 243.071 15.5233 243.233 15.6791C243.399 15.8349 243.482 16.0222 243.481 16.241C243.481 16.4597 243.399 16.6469 243.233 16.8027C243.07 16.9584 242.875 17.0362 242.646 17.0362ZM248.192 18.3104L248.192 19.3048L244.235 19.3037L244.235 18.3093L248.192 18.3104ZM245.389 16.4801L246.562 16.4804L246.56 23.7589C246.56 24.0903 246.608 24.3389 246.704 24.5046C246.804 24.6671 246.929 24.7765 247.082 24.8329C247.238 24.8859 247.402 24.9125 247.574 24.9125C247.703 24.9126 247.809 24.906 247.892 24.8927C247.975 24.8762 248.041 24.863 248.091 24.853L248.329 25.9071C248.25 25.9369 248.139 25.9667 247.996 25.9965C247.854 26.0296 247.673 26.0461 247.454 26.046C247.123 26.0459 246.798 25.9746 246.48 25.832C246.165 25.6894 245.903 25.4722 245.695 25.1805C245.489 24.8888 245.387 24.5208 245.387 24.0767L245.389 16.4801ZM252.475 26.1071C251.786 26.1069 251.181 25.9427 250.661 25.6144C250.144 25.2861 249.74 24.827 249.448 24.2369C249.16 23.6469 249.016 22.9574 249.016 22.1686C249.016 21.3732 249.161 20.6788 249.449 20.0856C249.741 19.4924 250.146 19.0319 250.663 18.7039C251.183 18.3759 251.788 18.212 252.478 18.2122C253.167 18.2124 253.77 18.3766 254.287 18.7049C254.807 19.0331 255.212 19.494 255.5 20.0873C255.791 20.6807 255.937 21.3751 255.937 22.1705C255.936 22.9594 255.79 23.6487 255.499 24.2386C255.21 24.8285 254.806 25.2874 254.285 25.6154C253.768 25.9434 253.165 26.1073 252.475 26.1071ZM252.476 25.0531C252.999 25.0532 253.43 24.9191 253.768 24.6508C254.107 24.3824 254.357 24.0295 254.519 23.592C254.682 23.1546 254.763 22.6806 254.763 22.1702C254.764 21.6598 254.682 21.1842 254.52 20.7433C254.358 20.3024 254.108 19.9461 253.77 19.6742C253.432 19.4023 253.001 19.2663 252.477 19.2662C251.954 19.266 251.523 19.4018 251.185 19.6735C250.846 19.9452 250.596 20.3014 250.434 20.7422C250.271 21.1829 250.19 21.6585 250.19 22.1689C250.189 22.6794 250.27 23.1533 250.433 23.5909C250.595 24.0284 250.845 24.3815 251.183 24.65C251.521 24.9186 251.952 25.053 252.476 25.0531ZM257.227 25.9493L257.229 18.3129L258.362 18.3132L258.362 19.4667L258.442 19.4667C258.581 19.0889 258.833 18.7824 259.197 18.5471C259.562 18.3119 259.973 18.1944 260.431 18.1945C260.517 18.1945 260.624 18.1962 260.754 18.1996C260.883 18.2029 260.981 18.2079 261.047 18.2146L261.047 19.4077C261.007 19.3978 260.916 19.3828 260.773 19.3629C260.634 19.3397 260.487 19.328 260.331 19.328C259.96 19.3279 259.628 19.4057 259.336 19.5614C259.048 19.7138 258.819 19.9258 258.65 20.1976C258.484 20.466 258.401 20.7725 258.401 21.1172L258.4 25.9496L257.227 25.9493Z" fill="#1D1E25"/>
<rect x="1.18311" y="15.8787" width="12.2" height="10" rx="2" transform="rotate(0.0158183 1.18311 15.8787)" fill="#2280FF"/>
<path d="M24.3761 15.7033L25.8477 15.7037L29.3056 24.1564L29.4249 24.1564L32.8875 15.7056L34.3591 15.706L34.3563 25.8879L33.2029 25.8875L33.205 18.1517L33.1056 18.1517L29.9216 25.8866L28.808 25.8863L25.6283 18.1497L25.5289 18.1496L25.5267 25.8854L24.3733 25.8851L24.3761 15.7033ZM36.9242 28.7522C36.7253 28.7522 36.548 28.7355 36.3922 28.7023C36.2365 28.6725 36.1288 28.6426 36.0691 28.6128L36.3677 27.5788C36.6527 27.6518 36.9046 27.6783 37.1234 27.6585C37.3421 27.6387 37.536 27.541 37.7051 27.3653C37.8775 27.193 38.035 26.913 38.1776 26.5253L38.3966 25.9287L35.5748 18.2518L36.8475 18.2522L38.9538 24.338L39.0334 24.338L41.143 18.2534L42.4157 18.2537L39.1718 27.0028C39.0259 27.3972 38.8452 27.7236 38.6297 27.9821C38.4142 28.2439 38.1639 28.4377 37.8788 28.5635C37.597 28.6894 37.2788 28.7523 36.9242 28.7522ZM46.899 28.755L46.9019 18.255L48.0354 18.2553L48.0351 19.4683L48.1743 19.4684C48.2605 19.3358 48.3798 19.1668 48.5324 18.9614C48.6882 18.7526 48.9103 18.5671 49.1987 18.4047C49.4904 18.2391 49.8849 18.1564 50.382 18.1565C51.025 18.1567 51.5917 18.3176 52.0822 18.6392C52.5726 18.9608 52.9553 19.4167 53.2302 20.0067C53.5052 20.5967 53.6425 21.2928 53.6423 22.0949C53.6421 22.9036 53.5043 23.6046 53.2291 24.1978C52.9538 24.7876 52.5725 25.2449 52.0852 25.5696C51.5979 25.891 51.0361 26.0516 50.3997 26.0514C49.9092 26.0512 49.5165 25.9699 49.2215 25.8074C48.9266 25.6416 48.6996 25.4543 48.5406 25.2455C48.3815 25.0333 48.259 24.8576 48.1728 24.7184L48.0734 24.7184L48.0723 28.7553L46.899 28.755ZM48.0542 22.0735C48.0541 22.6502 48.1384 23.1589 48.3074 23.5998C48.4763 24.0374 48.7231 24.3805 49.0478 24.6291C49.3726 24.8745 49.7703 24.9972 50.2409 24.9974C50.7315 24.9975 51.1408 24.8683 51.469 24.6099C51.8005 24.3482 52.0492 23.9969 52.215 23.5561C52.3842 23.1121 52.4689 22.6182 52.469 22.0747C52.4692 21.5377 52.3864 21.0538 52.2208 20.6229C52.0585 20.1887 51.8117 19.8456 51.4803 19.5936C51.1523 19.3383 50.7397 19.2106 50.2425 19.2104C49.7652 19.2103 49.3642 19.3312 49.0393 19.573C48.7144 19.8116 48.4691 20.1463 48.3032 20.5771C48.1374 21.0046 48.0544 21.5034 48.0542 22.0735ZM54.931 25.8935L54.9331 18.2572L56.0666 18.2575L56.0663 19.4109L56.1459 19.4109C56.2852 19.0331 56.5372 18.7266 56.9018 18.4914C57.2665 18.2562 57.6775 18.1386 58.1349 18.1387C58.221 18.1388 58.3288 18.1405 58.458 18.1438C58.5873 18.1472 58.685 18.1522 58.7513 18.1588L58.751 19.352C58.7112 19.342 58.6201 19.3271 58.4776 19.3072C58.3384 19.2839 58.1909 19.2723 58.0351 19.2722C57.6639 19.2721 57.3324 19.3499 57.0407 19.5056C56.7523 19.658 56.5236 19.8701 56.3545 20.1418C56.1887 20.4102 56.1057 20.7168 56.1056 21.0615L56.1043 25.8939L54.931 25.8935ZM62.5098 26.0547C61.8204 26.0545 61.2156 25.8903 60.6953 25.562C60.1784 25.2338 59.7741 24.7746 59.4826 24.1846C59.1944 23.5945 59.0504 22.9051 59.0507 22.1163C59.0509 21.3208 59.1953 20.6265 59.4838 20.0333C59.7756 19.4401 60.1801 18.9795 60.6972 18.6515C61.2177 18.3235 61.8226 18.1596 62.512 18.1598C63.2014 18.16 63.8046 18.3243 64.3215 18.6525C64.8418 18.9808 65.246 19.4416 65.5342 20.035C65.8257 20.6283 65.9713 21.3227 65.9711 22.1182C65.9709 22.907 65.8249 23.5964 65.5331 24.1862C65.2445 24.7761 64.8401 25.2351 64.3196 25.563C63.8025 25.891 63.1992 26.0549 62.5098 26.0547ZM62.5101 25.0007C63.0338 25.0009 63.4647 24.8668 63.8028 24.5984C64.141 24.33 64.3913 23.9771 64.5538 23.5397C64.7164 23.1022 64.7977 22.6283 64.7978 22.1179C64.798 21.6074 64.7169 21.1318 64.5546 20.6909C64.3923 20.2501 64.1422 19.8937 63.8042 19.6218C63.4662 19.35 63.0354 19.214 62.5117 19.2138C61.988 19.2137 61.5571 19.3494 61.219 19.6211C60.8808 19.8928 60.6305 20.249 60.468 20.6898C60.3054 21.1306 60.2241 21.6062 60.224 22.1166C60.2238 22.627 60.3049 23.101 60.4672 23.5385C60.6295 23.9761 60.8796 24.3291 61.2176 24.5977C61.5556 24.8663 61.9864 25.0006 62.5101 25.0007ZM70.1446 26.0568C69.5082 26.0567 68.9465 25.8958 68.4593 25.5741C67.9722 25.2492 67.5912 24.7917 67.3162 24.2016C67.0413 23.6083 66.904 22.9073 66.9042 22.0986C66.9044 21.2965 67.0421 20.6005 67.3174 20.0106C67.5927 19.4207 67.9756 18.9651 68.4662 18.6437C68.9568 18.3224 69.5236 18.1618 70.1666 18.162C70.6638 18.1621 71.0565 18.2451 71.3448 18.4109C71.6365 18.5733 71.8585 18.759 72.0109 18.9679C72.1666 19.1734 72.2875 19.3425 72.3737 19.4751L72.4731 19.4751L72.4741 15.7166L73.6474 15.7169L73.6446 25.8987L72.5111 25.8984L72.5114 24.7251L72.3722 24.7251C72.286 24.8642 72.1633 25.0399 72.0042 25.2519C71.845 25.4607 71.6179 25.6479 71.3229 25.8135C71.0279 25.9759 70.6351 26.057 70.1446 26.0568ZM70.304 25.0029C70.7746 25.003 71.1724 24.8805 71.4972 24.6353C71.8221 24.3868 72.0691 24.0439 72.2383 23.6064C72.4074 23.1656 72.4921 22.6569 72.4923 22.0802C72.4924 21.5101 72.4097 21.0113 72.2441 20.5837C72.0785 20.1528 71.8333 19.818 71.5086 19.5792C71.1838 19.3372 70.7828 19.2161 70.3056 19.216C69.8084 19.2158 69.3941 19.3433 69.0625 19.5984C68.7344 19.8502 68.4873 20.1932 68.3215 20.6274C68.159 21.0582 68.0776 21.5421 68.0775 22.079C68.0773 22.6225 68.1601 23.1164 68.3257 23.5606C68.4946 24.0015 68.7431 24.3528 69.0711 24.6148C69.4025 24.8734 69.8134 25.0028 70.304 25.0029ZM80.2698 22.7784L80.271 18.2642L81.4443 18.2645L81.4422 25.9009L80.2689 25.9005L80.2693 24.6079L80.1897 24.6079C80.0106 24.9956 79.7321 25.3253 79.3542 25.597C78.9763 25.8654 78.499 25.9995 77.9223 25.9993C77.445 25.9992 77.0208 25.8947 76.6496 25.6858C76.2785 25.4735 75.9869 25.1553 75.7749 24.731C75.5629 24.3034 75.457 23.7647 75.4572 23.1151L75.4585 18.2628L76.6318 18.2632L76.6305 23.0359C76.6303 23.5927 76.786 24.0369 77.0975 24.3684C77.4122 24.6999 77.8132 24.8658 78.3004 24.8659C78.5921 24.866 78.8888 24.7915 79.1904 24.6424C79.4954 24.4934 79.7507 24.2647 79.9562 23.9566C80.1651 23.6484 80.2696 23.2557 80.2698 22.7784ZM86.1934 26.0613C85.4775 26.0611 84.8611 25.8919 84.3441 25.5537C83.8272 25.2154 83.4296 24.7497 83.1513 24.1563C82.8731 23.563 82.734 22.8851 82.7343 22.1228C82.7345 21.3472 82.8772 20.6629 83.1624 20.0697C83.4509 19.4731 83.8521 19.0076 84.3659 18.673C84.883 18.335 85.4863 18.1662 86.1757 18.1664C86.7126 18.1665 87.1965 18.2661 87.6273 18.4651C88.0581 18.6641 88.411 18.9426 88.686 19.3006C88.961 19.6586 89.1316 20.0763 89.1978 20.5536L88.0245 20.5532C87.9351 20.2052 87.7363 19.8969 87.4281 19.6284C87.1233 19.3565 86.7123 19.2205 86.1953 19.2204C85.7379 19.2202 85.3368 19.3394 84.9921 19.578C84.6506 19.8132 84.3837 20.1462 84.1914 20.577C84.0023 21.0046 83.9077 21.5067 83.9076 22.0834C83.9074 22.6733 84.0001 23.1871 84.1855 23.6246C84.3743 24.0622 84.6394 24.402 84.9807 24.644C85.3254 24.8861 85.7297 25.0072 86.1937 25.0073C86.4986 25.0074 86.7754 24.9544 87.024 24.8484C87.2726 24.7424 87.4831 24.59 87.6555 24.3912C87.8279 24.1924 87.9506 23.9538 88.0236 23.6754L89.1969 23.6757C89.1305 24.1265 88.9663 24.5324 88.7044 24.8936C88.4458 25.2515 88.1026 25.5365 87.675 25.7485C87.2507 25.9572 86.7568 26.0614 86.1934 26.0613ZM93.7346 18.2679L93.7343 19.2622L89.777 19.2611L89.7772 18.2668L93.7346 18.2679ZM90.9311 16.4376L92.1044 16.4379L92.1024 23.7163C92.1023 24.0477 92.1503 24.2963 92.2464 24.4621C92.3458 24.6245 92.4717 24.7339 92.6241 24.7903C92.7799 24.8434 92.944 24.8699 93.1163 24.87C93.2456 24.87 93.3516 24.8634 93.4345 24.8502C93.5174 24.8336 93.5837 24.8204 93.6334 24.8105L93.8717 25.8645C93.7922 25.8943 93.6811 25.9241 93.5386 25.9539C93.3961 25.987 93.2154 26.0035 92.9967 26.0035C92.6652 26.0034 92.3405 25.932 92.0223 25.7894C91.7075 25.6468 91.4457 25.4297 91.237 25.1379C91.0316 24.8462 90.9289 24.4783 90.929 24.0342L90.9311 16.4376Z" fill="#1D1E25"/>
</g>
<defs>
<filter id="filter0_d_1_2553" x="166.053" y="32.9336" width="116.007" height="82.0132" filterUnits="userSpaceOnUse" color-interpolation-filters="sRGB">
<feFlood flood-opacity="0" result="BackgroundImageFix"/>
<feColorMatrix in="SourceAlpha" type="matrix" values="0 0 0 0 0 0 0 0 0 0 0 0 0 0 0 0 0 0 127 0" result="hardAlpha"/>
<feOffset dy="4"/>
<feGaussianBlur stdDeviation="11"/>
<feComposite in2="hardAlpha" operator="out"/>
<feColorMatrix type="matrix" values="0 0 0 0 0.624722 0 0 0 0 0.6401 0 0 0 0 0.720833 0 0 0 0.25 0"/>
<feBlend mode="multiply" in2="BackgroundImageFix" result="effect1_dropShadow_1_2553"/>
<feBlend mode="normal" in="SourceGraphic" in2="effect1_dropShadow_1_2553" result="shape"/>
</filter>
<filter id="filter1_d_1_2553" x="168.052" y="82.9277" width="22" height="22" filterUnits="userSpaceOnUse" color-interpolation-filters="sRGB">
<feFlood flood-opacity="0" result="BackgroundImageFix"/>
<feColorMatrix in="SourceAlpha" type="matrix" values="0 0 0 0 0 0 0 0 0 0 0 0 0 0 0 0 0 0 127 0" result="hardAlpha"/>
<feOffset dy="2"/>
<feGaussianBlur stdDeviation="2"/>
<feColorMatrix type="matrix" values="0 0 0 0 0.268354 0 0 0 0 0.268354 0 0 0 0 0.31049 0 0 0 0.15 0"/>
<feBlend mode="normal" in2="BackgroundImageFix" result="effect1_dropShadow_1_2553"/>
<feBlend mode="normal" in="SourceGraphic" in2="effect1_dropShadow_1_2553" result="shape"/>
</filter>
<linearGradient id="paint0_linear_1_2553" x1="180.512" y1="54.9281" x2="180.462" y2="237.928" gradientUnits="userSpaceOnUse">
<stop stop-color="#2A85FF"/>
<stop offset="1" stop-color="#2A85FF" stop-opacity="0"/>
</linearGradient>
<clipPath id="clip0_1_2553">
<rect width="366" height="260" fill="white" transform="translate(0.577393 0.878418) rotate(0.0158183)"/>
</clipPath>
<clipPath id="clip1_1_2553">
<rect width="26.84" height="206" fill="white" transform="translate(325.692 54.968) rotate(0.0158183)"/>
</clipPath>
<clipPath id="clip2_1_2553">
<rect width="29.28" height="206" fill="white" transform="translate(272.012 54.9534) rotate(0.0158183)"/>
</clipPath>
<clipPath id="clip3_1_2553">
<rect width="30.5" height="206" fill="white" transform="translate(217.112 54.9382) rotate(0.0158183)"/>
</clipPath>
<clipPath id="clip4_1_2553">
<rect width="48.8" height="206" fill="white" transform="translate(156.112 54.9214) rotate(0.0158183)"/>
</clipPath>
<clipPath id="clip5_1_2553">
<rect width="29.28" height="206" fill="white" transform="translate(114.632 54.9099) rotate(0.0158183)"/>
</clipPath>
<clipPath id="clip6_1_2553">
<rect width="32.94" height="206" fill="white" transform="translate(57.2925 54.894) rotate(0.0158183)"/>
</clipPath>
<clipPath id="clip7_1_2553">
<rect width="28.06" height="206" fill="white" transform="translate(4.83252 54.8794) rotate(0.0158183)"/>
</clipPath>
<clipPath id="clip8_1_2553">
<rect width="29.28" height="24" fill="white" transform="translate(-0.0844727 188.878) rotate(0.0158183)"/>
</clipPath>
<clipPath id="clip9_1_2553">
<rect width="29.28" height="24" fill="white" transform="translate(-0.0749512 154.878) rotate(0.0158183)"/>
</clipPath>
<clipPath id="clip10_1_2553">
<rect width="29.28" height="24" fill="white" transform="translate(-0.0656738 120.878) rotate(0.0158183)"/>
</clipPath>
<clipPath id="clip11_1_2553">
<rect width="29.28" height="24" fill="white" transform="translate(-0.0561523 86.8782) rotate(0.0158183)"/>
</clipPath>
</defs>
</svg>
