<svg width="40" height="40" viewBox="0 0 40 40" fill="none" xmlns="http://www.w3.org/2000/svg">
<path d="M16.0606 22.2727C15.4748 21.6869 14.525 21.6869 13.9393 22.2727C13.3535 22.8585 13.3535 23.8082 13.9393 24.394L16.0606 22.2727ZM18.3333 26.6667L17.2726 27.7273C17.8584 28.3131 18.8081 28.3131 19.3939 27.7273L18.3333 26.6667ZM26.0606 21.0607C26.6464 20.4749 26.6464 19.5251 26.0606 18.9393C25.4748 18.3536 24.525 18.3536 23.9393 18.9393L26.0606 21.0607ZM30.1666 11.6667V31.6667H33.1666V11.6667H30.1666ZM28.3333 33.5H11.6666V36.5H28.3333V33.5ZM9.83325 31.6667V11.6667H6.83325V31.6667H9.83325ZM11.6666 9.83333H14.9999V6.83333H11.6666V9.83333ZM24.9999 9.83333H28.3333V6.83333H24.9999V9.83333ZM11.6666 33.5C10.6541 33.5 9.83325 32.6792 9.83325 31.6667H6.83325C6.83325 34.336 8.99721 36.5 11.6666 36.5V33.5ZM30.1666 31.6667C30.1666 32.6792 29.3458 33.5 28.3333 33.5V36.5C31.0026 36.5 33.1666 34.336 33.1666 31.6667H30.1666ZM33.1666 11.6667C33.1666 8.99729 31.0026 6.83333 28.3333 6.83333V9.83333C29.3458 9.83333 30.1666 10.6541 30.1666 11.6667H33.1666ZM9.83325 11.6667C9.83325 10.6541 10.6541 9.83333 11.6666 9.83333V6.83333C8.99721 6.83333 6.83325 8.99729 6.83325 11.6667H9.83325ZM13.9393 24.394L17.2726 27.7273L19.3939 25.606L16.0606 22.2727L13.9393 24.394ZM19.3939 27.7273L26.0606 21.0607L23.9393 18.9393L17.2726 25.606L19.3939 27.7273ZM18.3333 6.5H21.6666V3.5H18.3333V6.5ZM21.6666 10.1667H18.3333V13.1667H21.6666V10.1667ZM18.3333 10.1667C17.3207 10.1667 16.4999 9.34586 16.4999 8.33333H13.4999C13.4999 11.0027 15.6639 13.1667 18.3333 13.1667V10.1667ZM23.4999 8.33333C23.4999 9.34586 22.6791 10.1667 21.6666 10.1667V13.1667C24.336 13.1667 26.4999 11.0027 26.4999 8.33333H23.4999ZM21.6666 6.5C22.6791 6.5 23.4999 7.32081 23.4999 8.33333H26.4999C26.4999 5.66396 24.336 3.5 21.6666 3.5V6.5ZM18.3333 3.5C15.6639 3.5 13.4999 5.66396 13.4999 8.33333H16.4999C16.4999 7.32081 17.3207 6.5 18.3333 6.5V3.5Z" fill="white"/>
</svg>
